<svg width="220" height="73" viewBox="0 0 220 73" fill="none" xmlns="http://www.w3.org/2000/svg">
<path d="M43.4678 18.1819V6.60419e-05H55.7192V3.16946H47.3119V7.50184H55.0889V10.6712H47.3119V15.0125H55.7548V18.1819H43.4678ZM62.4864 6.60419e-05V18.1819H58.7044V6.60419e-05H62.4864ZM69.2979 6.60419e-05V18.1819H65.5159V6.60419e-05H69.2979ZM78.542 18.4482C77.1393 18.4482 75.9319 18.1641 74.9198 17.5959C73.9136 17.0218 73.1383 16.211 72.5938 15.1634C72.0493 14.1099 71.777 12.8641 71.777 11.4258C71.777 10.0231 72.0493 8.79209 72.5938 7.73267C73.1383 6.67324 73.9048 5.8476 74.8932 5.25575C75.8875 4.66389 77.0534 4.36796 78.391 4.36796C79.2907 4.36796 80.1281 4.51297 80.9035 4.80298C81.6847 5.08707 82.3653 5.51616 82.9454 6.09027C83.5313 6.66437 83.987 7.38643 84.3126 8.25646C84.6381 9.12057 84.8008 10.1326 84.8008 11.2927V12.3314H73.2863V9.98764H81.2408C81.2408 9.44313 81.1225 8.96077 80.8857 8.54055C80.649 8.12033 80.3205 7.79185 79.9003 7.55511C79.486 7.31245 79.0036 7.19112 78.4532 7.19112C77.8791 7.19112 77.3701 7.32429 76.9262 7.59062C76.4882 7.85104 76.1449 8.20319 75.8964 8.64708C75.6478 9.08506 75.5205 9.57334 75.5146 10.1119V12.3403C75.5146 13.015 75.6389 13.598 75.8875 14.0892C76.142 14.5804 76.5001 14.9592 76.9617 15.2256C77.4234 15.4919 77.9708 15.6251 78.6041 15.6251C79.0243 15.6251 79.409 15.5659 79.7582 15.4475C80.1074 15.3291 80.4063 15.1516 80.6549 14.9148C80.9035 14.6781 81.0929 14.3881 81.2231 14.0448L84.7209 14.2756C84.5434 15.1161 84.1794 15.85 83.629 16.4773C83.0845 17.0988 82.3801 17.5841 81.516 17.9333C80.6578 18.2766 79.6665 18.4482 78.542 18.4482ZM91.0508 10.2984V18.1819H87.2689V4.54552H90.8733V6.95142H91.0331C91.3349 6.15833 91.841 5.53096 92.5512 5.06931C93.2614 4.60175 94.1226 4.36796 95.1346 4.36796C96.0816 4.36796 96.9073 4.57511 97.6116 4.98941C98.3159 5.40371 98.8633 5.99557 99.254 6.76498C99.6446 7.52848 99.8399 8.43993 99.8399 9.49936V18.1819H96.0579V10.1741C96.0639 9.33956 95.8508 8.68851 95.4187 8.22095C94.9867 7.74746 94.3919 7.51072 93.6343 7.51072C93.1253 7.51072 92.6755 7.62021 92.2849 7.8392C91.9002 8.05819 91.5983 8.37779 91.3793 8.79801C91.1662 9.21231 91.0568 9.71242 91.0508 10.2984ZM112.77 18.1819L107.568 6.60419e-05H111.767L114.777 12.6332H114.928L118.248 6.60419e-05H121.844L125.155 12.6599H125.315L128.324 6.60419e-05H132.524L127.321 18.1819H123.575L120.112 6.29446H119.97L116.517 18.1819H112.77ZM136.934 18.4393C136.064 18.4393 135.288 18.2884 134.608 17.9866C133.927 17.6788 133.389 17.226 132.992 16.6283C132.601 16.0246 132.406 15.2729 132.406 14.3733C132.406 13.6157 132.545 12.9795 132.823 12.4646C133.101 11.9496 133.48 11.5353 133.96 11.2217C134.439 10.908 134.984 10.6712 135.593 10.5114C136.209 10.3516 136.854 10.2392 137.529 10.1741C138.322 10.0912 138.961 10.0143 139.446 9.94325C139.931 9.86631 140.284 9.75385 140.503 9.60589C140.722 9.45793 140.831 9.23894 140.831 8.94893V8.89566C140.831 8.3334 140.654 7.89839 140.298 7.59062C139.949 7.28285 139.452 7.12897 138.807 7.12897C138.126 7.12897 137.585 7.2799 137.182 7.58174C136.78 7.87767 136.514 8.25054 136.383 8.70035L132.885 8.41626C133.063 7.58766 133.412 6.87151 133.933 6.26782C134.454 5.65821 135.126 5.19064 135.948 4.86512C136.777 4.53368 137.736 4.36796 138.825 4.36796C139.582 4.36796 140.307 4.45674 141 4.6343C141.698 4.81186 142.317 5.08707 142.855 5.45994C143.4 5.83281 143.829 6.31221 144.143 6.89815C144.456 7.47817 144.613 8.1736 144.613 8.98444V18.1819H141.026V16.2909H140.92C140.701 16.717 140.408 17.0929 140.041 17.4184C139.674 17.738 139.233 17.9895 138.718 18.173C138.203 18.3506 137.608 18.4393 136.934 18.4393ZM138.017 15.8293C138.573 15.8293 139.064 15.7198 139.491 15.5008C139.917 15.2759 140.251 14.974 140.494 14.5952C140.736 14.2164 140.858 13.7874 140.858 13.308V11.8609C140.739 11.9378 140.577 12.0088 140.369 12.0739C140.168 12.1331 139.94 12.1893 139.686 12.2426C139.431 12.29 139.177 12.3343 138.922 12.3758C138.668 12.4113 138.437 12.4438 138.23 12.4734C137.786 12.5385 137.398 12.6421 137.067 12.7842C136.735 12.9262 136.478 13.1186 136.295 13.3612C136.111 13.598 136.019 13.8939 136.019 14.249C136.019 14.7639 136.206 15.1575 136.579 15.4298C136.957 15.6961 137.437 15.8293 138.017 15.8293ZM151.329 10.2984V18.1819H147.547V4.54552H151.152V6.95142H151.311C151.613 6.15833 152.119 5.53096 152.83 5.06931C153.54 4.60175 154.401 4.36796 155.413 4.36796C156.36 4.36796 157.186 4.57511 157.89 4.98941C158.594 5.40371 159.142 5.99557 159.532 6.76498C159.923 7.52848 160.118 8.43993 160.118 9.49936V18.1819H156.336V10.1741C156.342 9.33956 156.129 8.68851 155.697 8.22095C155.265 7.74746 154.67 7.51072 153.913 7.51072C153.404 7.51072 152.954 7.62021 152.563 7.8392C152.178 8.05819 151.877 8.37779 151.658 8.79801C151.445 9.21231 151.335 9.71242 151.329 10.2984ZM169.242 23.5796C168.017 23.5796 166.967 23.4109 166.091 23.0736C165.221 22.7421 164.528 22.2894 164.013 21.7153C163.498 21.1412 163.164 20.496 163.01 19.7799L166.508 19.3094C166.615 19.5816 166.783 19.8361 167.014 20.0729C167.245 20.3096 167.55 20.499 167.929 20.641C168.313 20.789 168.781 20.863 169.331 20.863C170.154 20.863 170.832 20.6618 171.364 20.2593C171.903 19.8628 172.172 19.1969 172.172 18.2618V15.7671H172.012C171.847 16.1459 171.598 16.504 171.267 16.8413C170.935 17.1787 170.509 17.4539 169.988 17.667C169.467 17.88 168.846 17.9866 168.124 17.9866C167.1 17.9866 166.168 17.7498 165.327 17.2763C164.493 16.7969 163.827 16.066 163.33 15.0835C162.839 14.0951 162.593 12.8463 162.593 11.3371C162.593 9.79232 162.844 8.50208 163.348 7.46633C163.851 6.43058 164.519 5.65525 165.354 5.14034C166.194 4.62542 167.115 4.36796 168.115 4.36796C168.878 4.36796 169.518 4.49817 170.033 4.75859C170.547 5.01309 170.962 5.33269 171.275 5.7174C171.595 6.09618 171.841 6.46905 172.012 6.836H172.154V4.54552H175.91V18.3151C175.91 19.4751 175.626 20.4457 175.057 21.227C174.489 22.0082 173.702 22.5942 172.696 22.9848C171.696 23.3813 170.545 23.5796 169.242 23.5796ZM169.322 15.1457C169.932 15.1457 170.447 14.9947 170.867 14.6929C171.293 14.3851 171.619 13.9472 171.844 13.379C172.074 12.8049 172.19 12.1183 172.19 11.3193C172.19 10.5203 172.077 9.82784 171.853 9.2419C171.628 8.65004 171.302 8.19135 170.876 7.86583C170.45 7.54031 169.932 7.37755 169.322 7.37755C168.701 7.37755 168.177 7.54623 167.751 7.88359C167.325 8.21503 167.002 8.67668 166.783 9.26853C166.564 9.86039 166.455 10.544 166.455 11.3193C166.455 12.1065 166.564 12.7871 166.783 13.3612C167.008 13.9294 167.331 14.3703 167.751 14.684C168.177 14.9918 168.701 15.1457 169.322 15.1457ZM8.38495 43.1819V27.9092H17.5426V29.5498H10.2344V34.7103H16.8565V36.3509H10.2344V43.1819H8.38495ZM20.4715 43.1819V31.7273H22.2315V43.1819H20.4715ZM21.3664 29.8182C21.0234 29.8182 20.7276 29.7014 20.479 29.4678C20.2354 29.2341 20.1136 28.9532 20.1136 28.6251C20.1136 28.2969 20.2354 28.016 20.479 27.7824C20.7276 27.5487 21.0234 27.4319 21.3664 27.4319C21.7094 27.4319 22.0028 27.5487 22.2464 27.7824C22.495 28.016 22.6192 28.2969 22.6192 28.6251C22.6192 28.9532 22.495 29.2341 22.2464 29.4678C22.0028 29.7014 21.7094 29.8182 21.3664 29.8182ZM25.4549 43.1819V31.7273H27.1552V33.4575H27.2745C27.4833 32.8907 27.8612 32.4308 28.408 32.0778C28.9549 31.7249 29.5714 31.5484 30.2575 31.5484C30.3867 31.5484 30.5483 31.5508 30.7422 31.5558C30.9361 31.5608 31.0828 31.5682 31.1822 31.5782V33.368C31.1225 33.353 30.9858 33.3307 30.772 33.3008C30.5632 33.266 30.342 33.2486 30.1083 33.2486C29.5515 33.2486 29.0543 33.3655 28.6168 33.5991C28.1843 33.8278 27.8413 34.146 27.5877 34.5537C27.3391 34.9564 27.2149 35.4163 27.2149 35.9333V43.1819H25.4549ZM41.382 34.2927L39.8011 34.7401C39.7016 34.4766 39.555 34.2206 39.3611 33.972C39.1722 33.7185 38.9136 33.5097 38.5855 33.3456C38.2574 33.1815 37.8373 33.0995 37.3252 33.0995C36.6242 33.0995 36.0401 33.2611 35.5727 33.5842C35.1104 33.9024 34.8792 34.3076 34.8792 34.7998C34.8792 35.2373 35.0383 35.5828 35.3565 35.8364C35.6746 36.0899 36.1718 36.3012 36.8479 36.4702L38.5482 36.8879C39.5724 37.1364 40.3355 37.5168 40.8376 38.0288C41.3398 38.5359 41.5908 39.1897 41.5908 39.9901C41.5908 40.6464 41.4019 41.233 41.0241 41.7501C40.6512 42.2671 40.1292 42.6748 39.458 42.9731C38.7869 43.2714 38.0063 43.4205 37.1164 43.4205C35.9481 43.4205 34.9811 43.167 34.2155 42.6599C33.4499 42.1528 32.9651 41.412 32.7613 40.4376L34.4317 40.02C34.5908 40.6364 34.8916 41.0988 35.3341 41.407C35.7815 41.7153 36.3657 41.8694 37.0866 41.8694C37.9069 41.8694 38.5582 41.6954 39.0404 41.3474C39.5276 40.9944 39.7712 40.5718 39.7712 40.0796C39.7712 39.6819 39.632 39.3488 39.3536 39.0803C39.0752 38.8069 38.6476 38.603 38.0709 38.4688L36.1619 38.0214C35.1128 37.7728 34.3423 37.3875 33.8501 36.8655C33.3628 36.3385 33.1192 35.6798 33.1192 34.8893C33.1192 34.243 33.3007 33.6712 33.6636 33.1741C34.0315 32.6769 34.5312 32.2866 35.1626 32.0033C35.7989 31.7199 36.5198 31.5782 37.3252 31.5782C38.4587 31.5782 39.3486 31.8268 39.995 32.3239C40.6462 32.8211 41.1086 33.4773 41.382 34.2927ZM49.2216 31.7273V33.2188H43.2855V31.7273H49.2216ZM45.0156 28.983H46.7756V39.9006C46.7756 40.3978 46.8477 40.7707 46.9918 41.0192C47.141 41.2629 47.3299 41.4269 47.5586 41.5114C47.7923 41.591 48.0384 41.6307 48.2969 41.6307C48.4908 41.6307 48.6499 41.6208 48.7742 41.6009C48.8984 41.5761 48.9979 41.5562 49.0725 41.5413L49.4304 43.1222C49.3111 43.167 49.1445 43.2117 48.9308 43.2565C48.717 43.3062 48.446 43.331 48.1179 43.331C47.6207 43.331 47.1335 43.2241 46.6563 43.0104C46.184 42.7966 45.7912 42.4709 45.478 42.0334C45.1698 41.5959 45.0156 41.0441 45.0156 40.3779V28.983ZM58.0213 35.814V37.4546H51.3395V35.814H58.0213ZM58.383 27.9092H60.5009L64.7367 35.0384H64.9157L69.1515 27.9092H71.2694L65.7509 36.8879V43.1819H63.9015V36.8879L58.383 27.9092ZM76.6051 43.4205C75.5014 43.4205 74.5494 43.1769 73.7489 42.6897C72.9535 42.1975 72.3395 41.5114 71.907 40.6315C71.4794 39.7465 71.2656 38.7174 71.2656 37.5441C71.2656 36.3708 71.4794 35.3367 71.907 34.4418C72.3395 33.542 72.9411 32.841 73.7117 32.3388C74.4872 31.8317 75.3921 31.5782 76.4261 31.5782C77.0227 31.5782 77.6119 31.6776 78.1935 31.8765C78.7752 32.0754 79.3047 32.3985 79.782 32.8459C80.2592 33.2884 80.6396 33.8751 80.923 34.6059C81.2063 35.3367 81.348 36.2366 81.348 37.3055V38.0512H72.5185V36.5299H79.5583C79.5583 35.8836 79.429 35.3069 79.1705 34.7998C78.9169 34.2927 78.554 33.8925 78.0817 33.5991C77.6144 33.3058 77.0625 33.1592 76.4261 33.1592C75.7252 33.1592 75.1186 33.3332 74.6065 33.6812C74.0994 34.0242 73.7092 34.4717 73.4357 35.0235C73.1623 35.5754 73.0256 36.167 73.0256 36.7984V37.8126C73.0256 38.6776 73.1747 39.4109 73.473 40.0125C73.7763 40.6091 74.1964 41.064 74.7333 41.3772C75.2703 41.6854 75.8942 41.8396 76.6051 41.8396C77.0675 41.8396 77.4851 41.7749 77.858 41.6457C78.2358 41.5114 78.5614 41.3126 78.8349 41.0491C79.1083 40.7806 79.3196 40.4475 79.4688 40.0498L81.169 40.5271C80.9901 41.1038 80.6893 41.6109 80.2667 42.0484C79.8441 42.4809 79.3221 42.819 78.7007 43.0626C78.0792 43.3012 77.3807 43.4205 76.6051 43.4205ZM87.396 43.4504C86.6701 43.4504 86.0114 43.3136 85.4198 43.0402C84.8281 42.7618 84.3583 42.3616 84.0103 41.8396C83.6623 41.3126 83.4883 40.6762 83.4883 39.9305C83.4883 39.2742 83.6176 38.7423 83.8761 38.3346C84.1346 37.9219 84.4801 37.5988 84.9127 37.3651C85.3452 37.1315 85.8225 36.9575 86.3445 36.8431C86.8715 36.7238 87.4009 36.6293 87.9329 36.5597C88.6289 36.4702 89.1932 36.4031 89.6257 36.3584C90.0632 36.3087 90.3814 36.2266 90.5803 36.1123C90.7841 35.9979 90.886 35.7991 90.886 35.5157V35.456C90.886 34.7202 90.6847 34.1485 90.282 33.7408C89.8842 33.3332 89.2802 33.1293 88.4698 33.1293C87.6296 33.1293 86.9709 33.3133 86.4936 33.6812C86.0163 34.0491 85.6808 34.4418 85.4869 34.8594L83.8164 34.2629C84.1147 33.5668 84.5124 33.0249 85.0096 32.6371C85.5117 32.2444 86.0586 31.9709 86.6502 31.8168C87.2468 31.6577 87.8335 31.5782 88.4102 31.5782C88.7781 31.5782 89.2007 31.6229 89.6779 31.7124C90.1602 31.7969 90.625 31.9734 91.0725 32.2419C91.5249 32.5104 91.9002 32.9155 92.1985 33.4575C92.4968 33.9994 92.646 34.7252 92.646 35.635V43.1819H90.886V41.6307H90.7965C90.6772 41.8793 90.4783 42.1453 90.1999 42.4287C89.9215 42.7121 89.5511 42.9532 89.0888 43.1521C88.6264 43.3509 88.0622 43.4504 87.396 43.4504ZM87.6644 41.8694C88.3605 41.8694 88.9471 41.7327 89.4244 41.4592C89.9066 41.1858 90.2695 40.8328 90.5132 40.4003C90.7617 39.9678 90.886 39.5129 90.886 39.0356V37.4248C90.8114 37.5143 90.6474 37.5963 90.3938 37.6709C90.1453 37.7405 89.8569 37.8026 89.5288 37.8573C89.2056 37.907 88.8899 37.9518 88.5817 37.9915C88.2784 38.0263 88.0323 38.0562 87.8434 38.081C87.386 38.1407 86.9585 38.2376 86.5607 38.3719C86.168 38.5011 85.8498 38.6975 85.6062 38.961C85.3676 39.2195 85.2482 39.5725 85.2482 40.02C85.2482 40.6315 85.4744 41.0938 85.9269 41.407C86.3842 41.7153 86.9634 41.8694 87.6644 41.8694ZM95.8582 43.1819V31.7273H97.5585V33.4575H97.6778C97.8866 32.8907 98.2645 32.4308 98.8114 32.0778C99.3582 31.7249 99.9747 31.5484 100.661 31.5484C100.79 31.5484 100.952 31.5508 101.146 31.5558C101.339 31.5608 101.486 31.5682 101.586 31.5782V33.368C101.526 33.353 101.389 33.3307 101.175 33.3008C100.967 33.266 100.745 33.2486 100.512 33.2486C99.9548 33.2486 99.4577 33.3655 99.0202 33.5991C98.5876 33.8278 98.2446 34.146 97.991 34.5537C97.7425 34.9564 97.6182 35.4163 97.6182 35.9333V43.1819H95.8582ZM118.378 44.9717C116.856 44.9717 115.512 44.7629 114.343 44.3452C113.175 43.9326 112.193 43.3236 111.398 42.5182C110.602 41.7128 110.001 40.7259 109.593 39.5576C109.185 38.3893 108.981 37.0519 108.981 35.5455C108.981 34.0888 109.188 32.7863 109.6 31.6379C110.018 30.4894 110.622 29.515 111.412 28.7146C112.208 27.9092 113.172 27.2952 114.306 26.8726C115.444 26.45 116.732 26.2387 118.169 26.2387C119.566 26.2387 120.789 26.4674 121.838 26.9248C122.892 27.3772 123.772 27.9912 124.478 28.7668C125.189 29.5374 125.721 30.4049 126.074 31.3694C126.432 32.3339 126.611 33.3282 126.611 34.3523C126.611 35.0732 126.576 35.804 126.506 36.5448C126.437 37.2856 126.29 37.9667 126.066 38.5881C125.843 39.2046 125.497 39.7018 125.03 40.0796C124.567 40.4575 123.941 40.6464 123.15 40.6464C122.802 40.6464 122.42 40.5917 122.002 40.4823C121.584 40.3729 121.214 40.1915 120.891 39.9379C120.568 39.6844 120.376 39.3438 120.317 38.9163H120.227C120.108 39.2046 119.924 39.478 119.675 39.7366C119.432 39.9951 119.111 40.2014 118.713 40.3555C118.321 40.5097 117.841 40.5768 117.274 40.5569C116.628 40.532 116.058 40.3879 115.566 40.1244C115.074 39.8559 114.661 39.493 114.328 39.0356C114 38.5732 113.752 38.0388 113.583 37.4322C113.419 36.8207 113.336 36.162 113.336 35.456C113.336 34.7849 113.436 34.1709 113.635 33.6141C113.834 33.0572 114.11 32.57 114.463 32.1524C114.821 31.7348 115.238 31.4017 115.715 31.1531C116.198 30.8996 116.717 30.743 117.274 30.6833C117.771 30.6336 118.224 30.656 118.631 30.7504C119.039 30.8399 119.374 30.9766 119.638 31.1606C119.901 31.3396 120.068 31.5384 120.138 31.7572H120.227V30.9219H121.808V37.6634C121.808 38.081 121.925 38.4489 122.159 38.7671C122.392 39.0853 122.733 39.2444 123.18 39.2444C123.687 39.2444 124.075 39.0704 124.344 38.7224C124.617 38.3744 124.803 37.8374 124.903 37.1116C125.007 36.3857 125.059 35.456 125.059 34.3225C125.059 33.6563 124.968 33.0001 124.784 32.3538C124.605 31.7025 124.331 31.0935 123.963 30.5267C123.6 29.9599 123.14 29.4603 122.584 29.0278C122.027 28.5952 121.373 28.2572 120.622 28.0136C119.877 27.765 119.029 27.6407 118.079 27.6407C116.911 27.6407 115.865 27.8222 114.94 28.1851C114.02 28.543 113.237 29.0675 112.591 29.7586C111.949 30.4447 111.46 31.2799 111.122 32.2643C110.789 33.2437 110.622 34.3573 110.622 35.6052C110.622 36.8729 110.789 37.999 111.122 38.9834C111.46 39.9678 111.957 40.798 112.613 41.4741C113.274 42.1503 114.092 42.6648 115.067 43.0178C116.041 43.3658 117.165 43.5398 118.437 43.5398C118.984 43.5398 119.524 43.4876 120.056 43.3832C120.588 43.2788 121.057 43.1645 121.465 43.0402C121.873 42.9159 122.166 42.8239 122.345 42.7643L122.763 44.1364C122.454 44.2657 122.052 44.395 121.555 44.5242C121.062 44.6535 120.535 44.7604 119.974 44.8449C119.417 44.9294 118.885 44.9717 118.378 44.9717ZM117.513 39.0356C118.179 39.0356 118.718 38.9013 119.131 38.6329C119.544 38.3644 119.844 37.9592 120.033 37.4173C120.222 36.8754 120.317 36.1918 120.317 35.3665C120.317 34.5313 120.212 33.88 120.003 33.4127C119.795 32.9454 119.486 32.6173 119.079 32.4283C118.671 32.2394 118.169 32.145 117.572 32.145C117.006 32.145 116.521 32.2941 116.118 32.5924C115.72 32.8857 115.415 33.2785 115.201 33.7707C114.992 34.2579 114.888 34.7898 114.888 35.3665C114.888 36.0029 114.972 36.602 115.141 37.1638C115.31 37.7206 115.586 38.173 115.969 38.521C116.352 38.8641 116.866 39.0356 117.513 39.0356ZM135.39 43.1819V27.9092H137.239V34.7103H145.383V27.9092H147.232V43.1819H145.383V36.3509H137.239V43.1819H135.39ZM154.067 43.4504C153.341 43.4504 152.682 43.3136 152.091 43.0402C151.499 42.7618 151.029 42.3616 150.681 41.8396C150.333 41.3126 150.159 40.6762 150.159 39.9305C150.159 39.2742 150.288 38.7423 150.547 38.3346C150.805 37.9219 151.151 37.5988 151.584 37.3651C152.016 37.1315 152.493 36.9575 153.015 36.8431C153.542 36.7238 154.072 36.6293 154.604 36.5597C155.3 36.4702 155.864 36.4031 156.297 36.3584C156.734 36.3087 157.052 36.2266 157.251 36.1123C157.455 35.9979 157.557 35.7991 157.557 35.5157V35.456C157.557 34.7202 157.356 34.1485 156.953 33.7408C156.555 33.3332 155.951 33.1293 155.141 33.1293C154.301 33.1293 153.642 33.3133 153.165 33.6812C152.687 34.0491 152.352 34.4418 152.158 34.8594L150.487 34.2629C150.786 33.5668 151.183 33.0249 151.68 32.6371C152.183 32.2444 152.73 31.9709 153.321 31.8168C153.918 31.6577 154.504 31.5782 155.081 31.5782C155.449 31.5782 155.872 31.6229 156.349 31.7124C156.831 31.7969 157.296 31.9734 157.743 32.2419C158.196 32.5104 158.571 32.9155 158.869 33.4575C159.168 33.9994 159.317 34.7252 159.317 35.635V43.1819H157.557V41.6307H157.467C157.348 41.8793 157.149 42.1453 156.871 42.4287C156.592 42.7121 156.222 42.9532 155.76 43.1521C155.297 43.3509 154.733 43.4504 154.067 43.4504ZM154.335 41.8694C155.031 41.8694 155.618 41.7327 156.095 41.4592C156.578 41.1858 156.94 40.8328 157.184 40.4003C157.433 39.9678 157.557 39.5129 157.557 39.0356V37.4248C157.482 37.5143 157.318 37.5963 157.065 37.6709C156.816 37.7405 156.528 37.8026 156.2 37.8573C155.877 37.907 155.561 37.9518 155.253 37.9915C154.949 38.0263 154.703 38.0562 154.514 38.081C154.057 38.1407 153.629 38.2376 153.232 38.3719C152.839 38.5011 152.521 38.6975 152.277 38.961C152.038 39.2195 151.919 39.5725 151.919 40.02C151.919 40.6315 152.145 41.0938 152.598 41.407C153.055 41.7153 153.634 41.8694 154.335 41.8694ZM162.529 43.1819V31.7273H164.229V33.4575H164.349C164.558 32.8907 164.935 32.4308 165.482 32.0778C166.029 31.7249 166.646 31.5484 167.332 31.5484C167.461 31.5484 167.623 31.5508 167.816 31.5558C168.01 31.5608 168.157 31.5682 168.256 31.5782V33.368C168.197 33.353 168.06 33.3307 167.846 33.3008C167.637 33.266 167.416 33.2486 167.183 33.2486C166.626 33.2486 166.129 33.3655 165.691 33.5991C165.259 33.8278 164.915 34.146 164.662 34.5537C164.413 34.9564 164.289 35.4163 164.289 35.9333V43.1819H162.529ZM180.058 31.7273L175.822 43.1819H174.032L169.796 31.7273H171.705L174.867 40.8552H174.987L178.149 31.7273H180.058ZM185.403 43.4504C184.677 43.4504 184.018 43.3136 183.427 43.0402C182.835 42.7618 182.365 42.3616 182.017 41.8396C181.669 41.3126 181.495 40.6762 181.495 39.9305C181.495 39.2742 181.624 38.7423 181.883 38.3346C182.141 37.9219 182.487 37.5988 182.919 37.3651C183.352 37.1315 183.829 36.9575 184.351 36.8431C184.878 36.7238 185.408 36.6293 185.94 36.5597C186.636 36.4702 187.2 36.4031 187.633 36.3584C188.07 36.3087 188.388 36.2266 188.587 36.1123C188.791 35.9979 188.893 35.7991 188.893 35.5157V35.456C188.893 34.7202 188.692 34.1485 188.289 33.7408C187.891 33.3332 187.287 33.1293 186.477 33.1293C185.636 33.1293 184.978 33.3133 184.5 33.6812C184.023 34.0491 183.688 34.4418 183.494 34.8594L181.823 34.2629C182.122 33.5668 182.519 33.0249 183.016 32.6371C183.519 32.2444 184.065 31.9709 184.657 31.8168C185.254 31.6577 185.84 31.5782 186.417 31.5782C186.785 31.5782 187.207 31.6229 187.685 31.7124C188.167 31.7969 188.632 31.9734 189.079 32.2419C189.532 32.5104 189.907 32.9155 190.205 33.4575C190.504 33.9994 190.653 34.7252 190.653 35.635V43.1819H188.893V41.6307H188.803C188.684 41.8793 188.485 42.1453 188.207 42.4287C187.928 42.7121 187.558 42.9532 187.096 43.1521C186.633 43.3509 186.069 43.4504 185.403 43.4504ZM185.671 41.8694C186.367 41.8694 186.954 41.7327 187.431 41.4592C187.913 41.1858 188.276 40.8328 188.52 40.4003C188.769 39.9678 188.893 39.5129 188.893 39.0356V37.4248C188.818 37.5143 188.654 37.5963 188.401 37.6709C188.152 37.7405 187.864 37.8026 187.536 37.8573C187.212 37.907 186.897 37.9518 186.589 37.9915C186.285 38.0263 186.039 38.0562 185.85 38.081C185.393 38.1407 184.965 38.2376 184.568 38.3719C184.175 38.5011 183.857 38.6975 183.613 38.961C183.374 39.2195 183.255 39.5725 183.255 40.02C183.255 40.6315 183.481 41.0938 183.934 41.407C184.391 41.7153 184.97 41.8694 185.671 41.8694ZM193.865 43.1819V31.7273H195.565V33.4575H195.685C195.893 32.8907 196.271 32.4308 196.818 32.0778C197.365 31.7249 197.982 31.5484 198.668 31.5484C198.797 31.5484 198.958 31.5508 199.152 31.5558C199.346 31.5608 199.493 31.5682 199.592 31.5782V33.368C199.533 33.353 199.396 33.3307 199.182 33.3008C198.973 33.266 198.752 33.2486 198.518 33.2486C197.962 33.2486 197.465 33.3655 197.027 33.5991C196.594 33.8278 196.251 34.146 195.998 34.5537C195.749 34.9564 195.625 35.4163 195.625 35.9333V43.1819H193.865ZM205.655 43.4205C204.701 43.4205 203.858 43.1794 203.127 42.6972C202.396 42.2099 201.825 41.5239 201.412 40.6389C200.999 39.749 200.793 38.6975 200.793 37.4844C200.793 36.2813 200.999 35.2373 201.412 34.3523C201.825 33.4674 202.399 32.7838 203.135 32.3016C203.87 31.8193 204.721 31.5782 205.685 31.5782C206.431 31.5782 207.02 31.7025 207.452 31.9511C207.89 32.1947 208.223 32.4731 208.452 32.7863C208.685 33.0945 208.867 33.3481 208.996 33.5469H209.145V27.9092H210.905V43.1819H209.205V41.4219H208.996C208.867 41.6307 208.683 41.8942 208.444 42.2124C208.206 42.5256 207.865 42.8065 207.423 43.0551C206.98 43.2987 206.391 43.4205 205.655 43.4205ZM205.894 41.8396C206.6 41.8396 207.196 41.6556 207.684 41.2877C208.171 40.9148 208.541 40.4003 208.795 39.744C209.048 39.0828 209.175 38.3197 209.175 37.4546C209.175 36.5995 209.051 35.8513 208.802 35.2099C208.554 34.5636 208.186 34.0615 207.699 33.7035C207.211 33.3406 206.61 33.1592 205.894 33.1592C205.148 33.1592 204.527 33.3506 204.029 33.7334C203.537 34.1112 203.167 34.6258 202.918 35.2771C202.675 35.9234 202.553 36.6492 202.553 37.4546C202.553 38.27 202.677 39.0107 202.926 39.6769C203.179 40.3381 203.552 40.8651 204.044 41.2579C204.542 41.6457 205.158 41.8396 205.894 41.8396ZM8.62079 59.2927L7.03983 59.7401C6.9404 59.4766 6.79373 59.2206 6.59984 58.972C6.41092 58.7185 6.1524 58.5097 5.82427 58.3456C5.49615 58.1815 5.07605 58.0995 4.56398 58.0995C3.86298 58.0995 3.27882 58.2611 2.81149 58.5842C2.34913 58.9024 2.11795 59.3076 2.11795 59.7998C2.11795 60.2373 2.27704 60.5828 2.59523 60.8364C2.91341 61.0899 3.41057 61.3012 4.0867 61.4702L5.78699 61.8879C6.81113 62.1364 7.57427 62.5168 8.07641 63.0288C8.57854 63.5359 8.8296 64.1897 8.8296 64.9901C8.8296 65.6464 8.64068 66.233 8.26284 66.7501C7.88997 67.2671 7.36795 67.6748 6.69679 67.9731C6.02562 68.2714 5.24508 68.4205 4.35517 68.4205C3.18685 68.4205 2.21987 68.167 1.45425 67.6599C0.688621 67.1528 0.203891 66.412 5.55292e-05 65.4376L1.67051 65.02C1.8296 65.6364 2.13038 66.0988 2.57285 66.407C3.0203 66.7153 3.60446 66.8694 4.32534 66.8694C5.14565 66.8694 5.79693 66.6954 6.27917 66.3474C6.76639 65.9944 7.01 65.5718 7.01 65.0796C7.01 64.6819 6.87079 64.3488 6.59239 64.0803C6.31398 63.8069 5.88642 63.603 5.30972 63.4688L3.40062 63.0214C2.35162 62.7728 1.58102 62.3875 1.08883 61.8655C0.601618 61.3385 0.35801 60.6798 0.35801 59.8893C0.35801 59.243 0.539473 58.6712 0.902399 58.1741C1.2703 57.6769 1.76994 57.2866 2.40133 57.0033C3.0377 56.7199 3.75858 56.5782 4.56398 56.5782C5.6975 56.5782 6.58741 56.8268 7.23372 57.3239C7.885 57.8211 8.34736 58.4773 8.62079 59.2927ZM16.4604 56.7273V58.2188H10.5243V56.7273H16.4604ZM12.2544 53.983H14.0143V64.9006C14.0143 65.3978 14.0864 65.7707 14.2306 66.0192C14.3798 66.2629 14.5687 66.4269 14.7974 66.5114C15.031 66.591 15.2771 66.6307 15.5357 66.6307C15.7295 66.6307 15.8886 66.6208 16.0129 66.6009C16.1372 66.5761 16.2367 66.5562 16.3112 66.5413L16.6692 68.1222C16.5499 68.167 16.3833 68.2117 16.1695 68.2565C15.9558 68.3062 15.6848 68.331 15.3567 68.331C14.8595 68.331 14.3723 68.2241 13.895 68.0104C13.4227 67.7966 13.03 67.4709 12.7168 67.0334C12.4085 66.5959 12.2544 66.0441 12.2544 65.3779V53.983ZM26.3265 63.4986V56.7273H28.0864V68.1819H26.3265V66.243H26.2072C25.9387 66.8246 25.5211 67.3193 24.9543 67.727C24.3876 68.1297 23.6717 68.331 22.8066 68.331C22.0907 68.331 21.4543 68.1744 20.8975 67.8612C20.3407 67.543 19.9032 67.0658 19.585 66.4294C19.2668 65.7881 19.1077 64.9802 19.1077 64.0057V56.7273H20.8677V63.8864C20.8677 64.7217 21.1014 65.3879 21.5687 65.885C22.041 66.3822 22.6425 66.6307 23.3734 66.6307C23.8109 66.6307 24.2558 66.5189 24.7082 66.2952C25.1656 66.0714 25.5484 65.7284 25.8567 65.266C26.1699 64.8037 26.3265 64.2146 26.3265 63.4986ZM35.6352 68.4205C34.6806 68.4205 33.8379 68.1794 33.1071 67.6972C32.3763 67.2099 31.8046 66.5239 31.3919 65.6389C30.9793 64.749 30.773 63.6975 30.773 62.4844C30.773 61.2813 30.9793 60.2373 31.3919 59.3523C31.8046 58.4674 32.3788 57.7838 33.1146 57.3016C33.8504 56.8193 34.7005 56.5782 35.665 56.5782C36.4107 56.5782 36.9999 56.7025 37.4324 56.9511C37.8699 57.1947 38.203 57.4731 38.4317 57.7863C38.6654 58.0945 38.8468 58.3481 38.9761 58.5469H39.1252V52.9092H40.8852V68.1819H39.1849V66.4219H38.9761C38.8468 66.6307 38.6629 66.8942 38.4242 67.2124C38.1856 67.5256 37.845 67.8065 37.4026 68.0551C36.9601 68.2987 36.371 68.4205 35.6352 68.4205ZM35.8738 66.8396C36.5798 66.8396 37.1764 66.6556 37.6636 66.2877C38.1508 65.9148 38.5212 65.4003 38.7747 64.744C39.0283 64.0828 39.1551 63.3197 39.1551 62.4546C39.1551 61.5995 39.0308 60.8513 38.7822 60.2099C38.5336 59.5636 38.1657 59.0615 37.6785 58.7035C37.1913 58.3406 36.5897 58.1592 35.8738 58.1592C35.1281 58.1592 34.5066 58.3506 34.0095 58.7334C33.5173 59.1112 33.1469 59.6258 32.8983 60.2771C32.6547 60.9234 32.5329 61.6492 32.5329 62.4546C32.5329 63.27 32.6572 64.0107 32.9058 64.6769C33.1593 65.3381 33.5322 65.8651 34.0244 66.2579C34.5215 66.6457 35.138 66.8396 35.8738 66.8396ZM45.4864 72.4773C45.1881 72.4773 44.9221 72.4525 44.6884 72.4028C44.4548 72.358 44.2932 72.3133 44.2037 72.2685L44.6512 70.7174C45.0787 70.8268 45.4566 70.8665 45.7847 70.8367C46.1128 70.8069 46.4036 70.6602 46.6572 70.3967C46.9157 70.1382 47.1519 69.7181 47.3656 69.1364L47.6938 68.2415L43.458 56.7273H45.3671L48.529 65.8552H48.6483L51.8102 56.7273H53.7193L48.8571 69.8523C48.6384 70.444 48.3674 70.9337 48.0443 71.3214C47.7211 71.7142 47.3458 72.005 46.9182 72.194C46.4956 72.3829 46.0183 72.4773 45.4864 72.4773ZM56.0423 68.1819V56.7273H57.8023V68.1819H56.0423ZM56.9372 54.8182C56.5942 54.8182 56.2984 54.7014 56.0498 54.4678C55.8062 54.2341 55.6844 53.9532 55.6844 53.6251C55.6844 53.2969 55.8062 53.016 56.0498 52.7824C56.2984 52.5487 56.5942 52.4319 56.9372 52.4319C57.2802 52.4319 57.5736 52.5487 57.8172 52.7824C58.0658 53.016 58.19 53.2969 58.19 53.6251C58.19 53.9532 58.0658 54.2341 57.8172 54.4678C57.5736 54.7014 57.2802 54.8182 56.9372 54.8182ZM62.7857 61.2913V68.1819H61.0257V56.7273H62.726V58.5171H62.8751C63.1436 57.9354 63.5513 57.4681 64.0982 57.1151C64.645 56.7572 65.351 56.5782 66.2161 56.5782C66.9916 56.5782 67.6702 56.7373 68.2519 57.0555C68.8336 57.3687 69.286 57.8459 69.6092 58.4873C69.9323 59.1236 70.0939 59.929 70.0939 60.9035V68.1819H68.334V61.0228C68.334 60.1229 68.1003 59.4219 67.633 58.9198C67.1656 58.4127 66.5243 58.1592 65.709 58.1592C65.1472 58.1592 64.645 58.281 64.2026 58.5246C63.7651 58.7682 63.4195 59.1236 63.166 59.591C62.9124 60.0583 62.7857 60.6251 62.7857 61.2913ZM77.9335 72.716C77.0833 72.716 76.3525 72.6066 75.741 72.3879C75.1295 72.1741 74.6199 71.8907 74.2122 71.5377C73.8095 71.1897 73.4889 70.8168 73.2502 70.4191L74.6522 69.4347C74.8113 69.6435 75.0127 69.8822 75.2563 70.1506C75.4999 70.4241 75.833 70.6602 76.2556 70.8591C76.6831 71.0629 77.2424 71.1648 77.9335 71.1648C78.8582 71.1648 79.6213 70.9411 80.2229 70.4937C80.8245 70.0462 81.1252 69.3452 81.1252 68.3907V66.064H80.9761C80.8468 66.2728 80.6629 66.5313 80.4242 66.8396C80.1906 67.1428 79.8525 67.4138 79.41 67.6524C78.9725 67.8861 78.3809 68.0029 77.6352 68.0029C76.7105 68.0029 75.8802 67.7842 75.1444 67.3467C74.4136 66.9092 73.8344 66.2728 73.4068 65.4376C72.9843 64.6023 72.773 63.5881 72.773 62.395C72.773 61.2217 72.9793 60.2 73.3919 59.33C73.8046 58.455 74.3788 57.7788 75.1146 57.3016C75.8504 56.8193 76.7005 56.5782 77.665 56.5782C78.4107 56.5782 79.0024 56.7025 79.4399 56.9511C79.8823 57.1947 80.2204 57.4731 80.4541 57.7863C80.6927 58.0945 80.8767 58.3481 81.0059 58.5469H81.1849V56.7273H82.8852V68.51C82.8852 69.4944 82.6615 70.2948 82.214 70.9113C81.7715 71.5327 81.1749 71.9876 80.4242 72.276C79.6785 72.5693 78.8482 72.716 77.9335 72.716ZM77.8738 66.4219C78.5798 66.4219 79.1764 66.2604 79.6636 65.9372C80.1508 65.6141 80.5212 65.1492 80.7747 64.5427C81.0283 63.9361 81.1551 63.2103 81.1551 62.3651C81.1551 61.5398 81.0308 60.8115 80.7822 60.1801C80.5336 59.5487 80.1657 59.054 79.6785 58.6961C79.1913 58.3381 78.5897 58.1592 77.8738 58.1592C77.1281 58.1592 76.5066 58.3481 76.0095 58.7259C75.5173 59.1038 75.1469 59.6109 74.8983 60.2472C74.6547 60.8836 74.5329 61.5896 74.5329 62.3651C74.5329 63.1606 74.6572 63.8641 74.9058 64.4756C75.1593 65.0821 75.5322 65.5594 76.0244 65.9074C76.5215 66.2504 77.138 66.4219 77.8738 66.4219ZM104.541 57.6819H102.692C102.583 57.1499 102.391 56.6826 102.118 56.2799C101.849 55.8772 101.521 55.5391 101.133 55.2657C100.751 54.9873 100.326 54.7785 99.8582 54.6393C99.3909 54.5001 98.9036 54.4305 98.3965 54.4305C97.4718 54.4305 96.6341 54.6641 95.8834 55.1315C95.1377 55.5988 94.5436 56.2874 94.1011 57.1972C93.6636 58.107 93.4448 59.2231 93.4448 60.5455C93.4448 61.868 93.6636 62.9841 94.1011 63.8939C94.5436 64.8037 95.1377 65.4923 95.8834 65.9596C96.6341 66.4269 97.4718 66.6606 98.3965 66.6606C98.9036 66.6606 99.3909 66.591 99.8582 66.4518C100.326 66.3126 100.751 66.1062 101.133 65.8328C101.521 65.5544 101.849 65.2138 102.118 64.8111C102.391 64.4035 102.583 63.9361 102.692 63.4092H104.541C104.402 64.1897 104.149 64.8882 103.781 65.5047C103.413 66.1212 102.955 66.6457 102.409 67.0782C101.862 67.5057 101.248 67.8314 100.567 68.0551C99.8905 68.2788 99.1671 68.3907 98.3965 68.3907C97.094 68.3907 95.9356 68.0725 94.9214 67.4361C93.9072 66.7998 93.1093 65.895 92.5276 64.7217C91.9459 63.5484 91.6551 62.1563 91.6551 60.5455C91.6551 58.9347 91.9459 57.5427 92.5276 56.3694C93.1093 55.1961 93.9072 54.2913 94.9214 53.6549C95.9356 53.0185 97.094 52.7004 98.3965 52.7004C99.1671 52.7004 99.8905 52.8122 100.567 53.0359C101.248 53.2597 101.862 53.5878 102.409 54.0203C102.955 54.4479 103.413 54.9699 103.781 55.5864C104.149 56.1979 104.402 56.8964 104.541 57.6819ZM115.882 56.7273C115.793 55.9717 115.43 55.385 114.793 54.9674C114.157 54.5498 113.377 54.341 112.452 54.341C111.776 54.341 111.184 54.4504 110.677 54.6691C110.175 54.8879 109.782 55.1886 109.499 55.5714C109.22 55.9543 109.081 56.3893 109.081 56.8765C109.081 57.2842 109.178 57.6347 109.372 57.928C109.571 58.2163 109.824 58.4575 110.133 58.6513C110.441 58.8403 110.764 58.9969 111.102 59.1212C111.44 59.2405 111.751 59.3374 112.034 59.412L113.585 59.8296C113.983 59.934 114.426 60.0782 114.913 60.2621C115.405 60.4461 115.875 60.6972 116.322 61.0153C116.775 61.3285 117.148 61.7312 117.441 62.2234C117.734 62.7156 117.881 63.3197 117.881 64.0356C117.881 64.8609 117.665 65.6066 117.232 66.2728C116.804 66.939 116.178 67.4685 115.353 67.8612C114.532 68.254 113.536 68.4504 112.362 68.4504C111.269 68.4504 110.322 68.2739 109.521 67.9209C108.726 67.5679 108.099 67.0757 107.642 66.4443C107.189 65.8129 106.933 65.0796 106.874 64.2444H108.783C108.833 64.8211 109.026 65.2984 109.364 65.6762C109.708 66.0491 110.14 66.3275 110.662 66.5114C111.189 66.6904 111.756 66.7799 112.362 66.7799C113.068 66.7799 113.702 66.6655 114.264 66.4369C114.826 66.2032 115.271 65.88 115.599 65.4674C115.927 65.0498 116.091 64.5626 116.091 64.0057C116.091 63.4986 115.949 63.086 115.666 62.7678C115.383 62.4496 115.01 62.1911 114.547 61.9923C114.085 61.7934 113.585 61.6194 113.048 61.4702L111.169 60.9333C109.976 60.5903 109.031 60.1006 108.335 59.4642C107.639 58.8278 107.291 57.9951 107.291 56.966C107.291 56.1109 107.523 55.3651 107.985 54.7288C108.452 54.0874 109.079 53.5903 109.864 53.2373C110.655 52.8793 111.537 52.7004 112.512 52.7004C113.496 52.7004 114.371 52.8768 115.137 53.2298C115.902 53.5778 116.509 54.0551 116.956 54.6616C117.409 55.2682 117.647 55.9567 117.672 56.7273H115.882ZM131.064 65.4972V55.6535H132.734V65.4972H131.064ZM126.977 61.4106V59.7401H136.821V61.4106H126.977ZM146.577 68.1819V52.9092H151.737C152.936 52.9092 153.915 53.1254 154.676 53.5579C155.441 53.9855 156.008 54.5647 156.376 55.2955C156.744 56.0263 156.928 56.8417 156.928 57.7415C156.928 58.6414 156.744 59.4592 156.376 60.195C156.013 60.9308 155.451 61.5175 154.69 61.955C153.93 62.3875 152.955 62.6038 151.767 62.6038H148.068V60.9631H151.708C152.528 60.9631 153.187 60.8214 153.684 60.5381C154.181 60.2547 154.541 59.8719 154.765 59.3896C154.994 58.9024 155.108 58.353 155.108 57.7415C155.108 57.13 154.994 56.5832 154.765 56.1009C154.541 55.6187 154.178 55.2408 153.676 54.9674C153.174 54.689 152.508 54.5498 151.678 54.5498H148.426V68.1819H146.577ZM161.428 61.2913V68.1819H159.668V52.9092H161.428V58.5171H161.577C161.846 57.9255 162.249 57.4557 162.785 57.1077C163.327 56.7547 164.048 56.5782 164.948 56.5782C165.729 56.5782 166.412 56.7348 166.999 57.048C167.586 57.3562 168.04 57.831 168.364 58.4724C168.692 59.1087 168.856 59.9191 168.856 60.9035V68.1819H167.096V61.0228C167.096 60.113 166.86 59.4095 166.387 58.9124C165.92 58.4102 165.271 58.1592 164.441 58.1592C163.864 58.1592 163.347 58.281 162.89 58.5246C162.437 58.7682 162.08 59.1236 161.816 59.591C161.557 60.0583 161.428 60.6251 161.428 61.2913ZM172.799 72.4773C172.501 72.4773 172.235 72.4525 172.001 72.4028C171.767 72.358 171.606 72.3133 171.516 72.2685L171.964 70.7174C172.391 70.8268 172.769 70.8665 173.097 70.8367C173.425 70.8069 173.716 70.6602 173.97 70.3967C174.228 70.1382 174.464 69.7181 174.678 69.1364L175.006 68.2415L170.77 56.7273H172.68L175.841 65.8552H175.961L179.123 56.7273H181.032L176.17 69.8523C175.951 70.444 175.68 70.9337 175.357 71.3214C175.034 71.7142 174.658 72.005 174.231 72.194C173.808 72.3829 173.331 72.4773 172.799 72.4773ZM191.468 59.2927L189.887 59.7401C189.788 59.4766 189.641 59.2206 189.447 58.972C189.259 58.7185 189 58.5097 188.672 58.3456C188.344 58.1815 187.924 58.0995 187.412 58.0995C186.711 58.0995 186.126 58.2611 185.659 58.5842C185.197 58.9024 184.966 59.3076 184.966 59.7998C184.966 60.2373 185.125 60.5828 185.443 60.8364C185.761 61.0899 186.258 61.3012 186.934 61.4702L188.635 61.8879C189.659 62.1364 190.422 62.5168 190.924 63.0288C191.426 63.5359 191.677 64.1897 191.677 64.9901C191.677 65.6464 191.488 66.233 191.11 66.7501C190.738 67.2671 190.216 67.6748 189.544 67.9731C188.873 68.2714 188.093 68.4205 187.203 68.4205C186.035 68.4205 185.068 68.167 184.302 67.6599C183.536 67.1528 183.052 66.412 182.848 65.4376L184.518 65.02C184.677 65.6364 184.978 66.0988 185.421 66.407C185.868 66.7153 186.452 66.8694 187.173 66.8694C187.993 66.8694 188.645 66.6954 189.127 66.3474C189.614 65.9944 189.858 65.5718 189.858 65.0796C189.858 64.6819 189.718 64.3488 189.44 64.0803C189.162 63.8069 188.734 63.603 188.157 63.4688L186.248 63.0214C185.199 62.7728 184.429 62.3875 183.936 61.8655C183.449 61.3385 183.206 60.6798 183.206 59.8893C183.206 59.243 183.387 58.6712 183.75 58.1741C184.118 57.6769 184.618 57.2866 185.249 57.0033C185.885 56.7199 186.606 56.5782 187.412 56.5782C188.545 56.5782 189.435 56.8268 190.081 57.3239C190.733 57.8211 191.195 58.4773 191.468 59.2927ZM194.326 68.1819V56.7273H196.086V68.1819H194.326ZM195.221 54.8182C194.878 54.8182 194.583 54.7014 194.334 54.4678C194.09 54.2341 193.969 53.9532 193.969 53.6251C193.969 53.2969 194.09 53.016 194.334 52.7824C194.583 52.5487 194.878 52.4319 195.221 52.4319C195.564 52.4319 195.858 52.5487 196.101 52.7824C196.35 53.016 196.474 53.2969 196.474 53.6251C196.474 53.9532 196.35 54.2341 196.101 54.4678C195.858 54.7014 195.564 54.8182 195.221 54.8182ZM203.963 68.4205C202.889 68.4205 201.965 68.167 201.189 67.6599C200.414 67.1528 199.817 66.4543 199.399 65.5643C198.982 64.6744 198.773 63.6577 198.773 62.5143C198.773 61.3509 198.987 60.3243 199.414 59.4344C199.847 58.5395 200.448 57.841 201.219 57.3388C201.995 56.8317 202.899 56.5782 203.933 56.5782C204.739 56.5782 205.465 56.7273 206.111 57.0256C206.757 57.3239 207.287 57.7415 207.699 58.2785C208.112 58.8154 208.368 59.4418 208.468 60.1577H206.708C206.573 59.6357 206.275 59.1734 205.813 58.7707C205.355 58.363 204.739 58.1592 203.963 58.1592C203.277 58.1592 202.676 58.3381 202.159 58.6961C201.647 59.0491 201.246 59.5487 200.958 60.195C200.675 60.8364 200.533 61.5896 200.533 62.4546C200.533 63.3396 200.672 64.1102 200.951 64.7664C201.234 65.4227 201.632 65.9322 202.144 66.2952C202.661 66.6581 203.267 66.8396 203.963 66.8396C204.421 66.8396 204.836 66.76 205.209 66.6009C205.582 66.4418 205.897 66.2131 206.156 65.9148C206.414 65.6165 206.598 65.2586 206.708 64.841H208.468C208.368 65.5171 208.122 66.1261 207.729 66.668C207.341 67.205 206.827 67.6325 206.186 67.9507C205.549 68.2639 204.808 68.4205 203.963 68.4205ZM219.154 59.2927L217.573 59.7401C217.474 59.4766 217.327 59.2206 217.133 58.972C216.944 58.7185 216.686 58.5097 216.357 58.3456C216.029 58.1815 215.609 58.0995 215.097 58.0995C214.396 58.0995 213.812 58.2611 213.345 58.5842C212.882 58.9024 212.651 59.3076 212.651 59.7998C212.651 60.2373 212.81 60.5828 213.128 60.8364C213.447 61.0899 213.944 61.3012 214.62 61.4702L216.32 61.8879C217.344 62.1364 218.107 62.5168 218.61 63.0288C219.112 63.5359 219.363 64.1897 219.363 64.9901C219.363 65.6464 219.174 66.233 218.796 66.7501C218.423 67.2671 217.901 67.6748 217.23 67.9731C216.559 68.2714 215.778 68.4205 214.888 68.4205C213.72 68.4205 212.753 68.167 211.987 67.6599C211.222 67.1528 210.737 66.412 210.533 65.4376L212.204 65.02C212.363 65.6364 212.664 66.0988 213.106 66.407C213.554 66.7153 214.138 66.8694 214.859 66.8694C215.679 66.8694 216.33 66.6954 216.812 66.3474C217.3 65.9944 217.543 65.5718 217.543 65.0796C217.543 64.6819 217.404 64.3488 217.126 64.0803C216.847 63.8069 216.42 63.603 215.843 63.4688L213.934 63.0214C212.885 62.7728 212.114 62.3875 211.622 61.8655C211.135 61.3385 210.891 60.6798 210.891 59.8893C210.891 59.243 211.073 58.6712 211.436 58.1741C211.804 57.6769 212.303 57.2866 212.935 57.0033C213.571 56.7199 214.292 56.5782 215.097 56.5782C216.231 56.5782 217.121 56.8268 217.767 57.3239C218.418 57.8211 218.881 58.4773 219.154 59.2927Z" fill="black"/>
</svg>
