<svg width="203" height="74" viewBox="0 0 203 74" fill="none" xmlns="http://www.w3.org/2000/svg">
<path d="M48.9745 19.2205V1.03864H61.226V4.20803H52.8186V8.54042H60.5956V11.7098H52.8186V16.0511H61.2615V19.2205H48.9745ZM64.2111 19.2205V5.58409H67.8155V7.98999H67.9753C68.2594 7.19098 68.7329 6.56066 69.3958 6.09901C70.0587 5.63736 70.8518 5.40654 71.7751 5.40654C72.7102 5.40654 73.5062 5.64032 74.1632 6.10789C74.8202 6.56954 75.2581 7.1969 75.4771 7.98999H75.6192C75.8973 7.20874 76.4004 6.58433 77.1284 6.11677C77.8623 5.64328 78.7294 5.40654 79.7296 5.40654C81.0021 5.40654 82.0349 5.81196 82.828 6.6228C83.627 7.42773 84.0265 8.57001 84.0265 10.0496V19.2205H80.2534V10.7954C80.2534 10.0378 80.0522 9.46963 79.6497 9.09084C79.2472 8.71205 78.7442 8.52266 78.1405 8.52266C77.4539 8.52266 76.9183 8.74165 76.5336 9.17962C76.1489 9.61168 75.9565 10.1828 75.9565 10.893V19.2205H72.29V10.7155C72.29 10.0467 72.0976 9.51402 71.7129 9.11748C71.3341 8.72093 70.834 8.52266 70.2126 8.52266C69.7923 8.52266 69.4136 8.62919 69.0762 8.84226C68.7448 9.04941 68.4814 9.34238 68.2861 9.72117C68.0908 10.094 67.9931 10.532 67.9931 11.0351V19.2205H64.2111ZM87.0139 19.2205V5.58409H90.7958V19.2205H87.0139ZM88.9137 3.82628C88.3515 3.82628 87.8691 3.63985 87.4666 3.26698C87.0701 2.88819 86.8718 2.43542 86.8718 1.90867C86.8718 1.38784 87.0701 0.940984 87.4666 0.568115C87.8691 0.189327 88.3515 -6.75321e-05 88.9137 -6.75321e-05C89.476 -6.75321e-05 89.9554 0.189327 90.3519 0.568115C90.7544 0.940984 90.9556 1.38784 90.9556 1.90867C90.9556 2.43542 90.7544 2.88819 90.3519 3.26698C89.9554 3.63985 89.476 3.82628 88.9137 3.82628ZM97.6074 1.03864V19.2205H93.8254V1.03864H97.6074ZM102.972 24.3341C102.492 24.3341 102.043 24.2956 101.622 24.2187C101.208 24.1477 100.865 24.0559 100.593 23.9435L101.445 21.1203C101.889 21.2564 102.288 21.3304 102.643 21.3423C103.004 21.3541 103.315 21.2712 103.575 21.0937C103.842 20.9161 104.058 20.6143 104.224 20.1881L104.446 19.6111L99.5538 5.58409H103.531L106.354 15.5983H106.496L109.346 5.58409H113.35L108.05 20.6942C107.795 21.4281 107.449 22.0673 107.011 22.6118C106.579 23.1622 106.032 23.5854 105.369 23.8813C104.706 24.1832 103.907 24.3341 102.972 24.3341ZM128.422 1.03864H132.222V13.7162C132.222 14.8881 131.959 15.9061 131.432 16.7702C130.911 17.6343 130.186 18.3001 129.257 18.7677C128.328 19.2353 127.248 19.469 126.016 19.469C124.922 19.469 123.927 19.2767 123.033 18.892C122.146 18.5014 121.441 17.9095 120.921 17.1164C120.4 16.3174 120.142 15.3142 120.148 14.1068H123.975C123.986 14.5862 124.084 14.9976 124.268 15.3408C124.457 15.6782 124.714 15.9386 125.04 16.1221C125.371 16.2996 125.762 16.3884 126.212 16.3884C126.685 16.3884 127.085 16.2878 127.41 16.0866C127.742 15.8794 127.993 15.5776 128.165 15.181C128.337 14.7845 128.422 14.2962 128.422 13.7162V1.03864ZM135.329 19.2205V5.58409H139.111V19.2205H135.329ZM137.229 3.82628C136.667 3.82628 136.185 3.63985 135.782 3.26698C135.386 2.88819 135.187 2.43542 135.187 1.90867C135.187 1.38784 135.386 0.940984 135.782 0.568115C136.185 0.189327 136.667 -6.75321e-05 137.229 -6.75321e-05C137.791 -6.75321e-05 138.271 0.189327 138.667 0.568115C139.07 0.940984 139.271 1.38784 139.271 1.90867C139.271 2.43542 139.07 2.88819 138.667 3.26698C138.271 3.63985 137.791 3.82628 137.229 3.82628ZM146.029 19.4779C145.159 19.4779 144.384 19.327 143.703 19.0251C143.023 18.7174 142.484 18.2646 142.088 17.6668C141.697 17.0631 141.502 16.3115 141.502 15.4119C141.502 14.6543 141.641 14.018 141.919 13.5031C142.197 12.9882 142.576 12.5739 143.055 12.2602C143.535 11.9465 144.079 11.7098 144.689 11.55C145.304 11.3902 145.949 11.2778 146.624 11.2126C147.417 11.1298 148.056 11.0528 148.542 10.9818C149.027 10.9049 149.379 10.7924 149.598 10.6445C149.817 10.4965 149.927 10.2775 149.927 9.9875V9.93424C149.927 9.37197 149.749 8.93696 149.394 8.62919C149.045 8.32143 148.548 8.16755 147.903 8.16755C147.222 8.16755 146.68 8.31847 146.278 8.62032C145.875 8.91624 145.609 9.28911 145.479 9.73892L141.981 9.45483C142.159 8.62624 142.508 7.91009 143.029 7.3064C143.549 6.69678 144.221 6.22922 145.044 5.9037C145.872 5.57226 146.831 5.40654 147.92 5.40654C148.678 5.40654 149.403 5.49532 150.095 5.67287C150.794 5.85043 151.412 6.12564 151.951 6.49851C152.495 6.87138 152.924 7.35079 153.238 7.93672C153.552 8.51674 153.709 9.21217 153.709 10.023V19.2205H150.122V17.3295H150.015C149.796 17.7556 149.504 18.1314 149.137 18.457C148.77 18.7766 148.329 19.0281 147.814 19.2116C147.299 19.3891 146.704 19.4779 146.029 19.4779ZM147.112 16.8678C147.669 16.8678 148.16 16.7583 148.586 16.5394C149.012 16.3144 149.347 16.0126 149.589 15.6338C149.832 15.255 149.953 14.8259 149.953 14.3465V12.8994C149.835 12.9764 149.672 13.0474 149.465 13.1125C149.264 13.1717 149.036 13.2279 148.781 13.2812C148.527 13.3285 148.272 13.3729 148.018 13.4144C147.763 13.4499 147.533 13.4824 147.325 13.512C146.882 13.5771 146.494 13.6807 146.162 13.8227C145.831 13.9648 145.574 14.1571 145.39 14.3998C145.207 14.6365 145.115 14.9325 145.115 15.2876C145.115 15.8025 145.301 16.1961 145.674 16.4683C146.053 16.7347 146.532 16.8678 147.112 16.8678ZM6.66976e-05 44.2205V28.9477H9.15774V30.5884H1.8495V35.7489H8.47166V37.3895H1.8495V44.2205H6.66976e-05ZM12.0866 44.2205V32.7659H13.8466V44.2205H12.0866ZM12.9815 30.8568C12.6385 30.8568 12.3427 30.74 12.0941 30.5063C11.8505 30.2727 11.7287 29.9918 11.7287 29.6636C11.7287 29.3355 11.8505 29.0546 12.0941 28.821C12.3427 28.5873 12.6385 28.4705 12.9815 28.4705C13.3246 28.4705 13.6179 28.5873 13.8615 28.821C14.1101 29.0546 14.2344 29.3355 14.2344 29.6636C14.2344 29.9918 14.1101 30.2727 13.8615 30.5063C13.6179 30.74 13.3246 30.8568 12.9815 30.8568ZM17.07 44.2205V32.7659H18.7703V34.496H18.8896C19.0984 33.9293 19.4763 33.4694 20.0231 33.1164C20.57 32.7634 21.1865 32.5869 21.8726 32.5869C22.0018 32.5869 22.1634 32.5894 22.3573 32.5944C22.5512 32.5994 22.6979 32.6068 22.7973 32.6168V34.4065C22.7376 34.3916 22.6009 34.3693 22.3871 34.3394C22.1783 34.3046 21.9571 34.2872 21.7234 34.2872C21.1666 34.2872 20.6695 34.4041 20.232 34.6377C19.7994 34.8664 19.4564 35.1846 19.2028 35.5923C18.9543 35.995 18.83 36.4548 18.83 36.9719V44.2205H17.07ZM32.9971 35.3313L31.4162 35.7787C31.3167 35.5152 31.1701 35.2592 30.9762 35.0106C30.7873 34.757 30.5287 34.5482 30.2006 34.3842C29.8725 34.2201 29.4524 34.1381 28.9403 34.1381C28.2393 34.1381 27.6552 34.2996 27.1878 34.6228C26.7255 34.941 26.4943 35.3462 26.4943 35.8384C26.4943 36.2759 26.6534 36.6214 26.9716 36.8749C27.2898 37.1285 27.7869 37.3398 28.463 37.5088L30.1633 37.9264C31.1875 38.175 31.9506 38.5553 32.4527 39.0674C32.9549 39.5745 33.2059 40.2283 33.2059 41.0287C33.2059 41.6849 33.017 42.2716 32.6392 42.7886C32.2663 43.3057 31.7443 43.7134 31.0731 44.0117C30.402 44.3099 29.6214 44.4591 28.7315 44.4591C27.5632 44.4591 26.5962 44.2055 25.8306 43.6984C25.065 43.1913 24.5802 42.4506 24.3764 41.4761L26.0469 41.0585C26.2059 41.675 26.5067 42.1374 26.9492 42.4456C27.3966 42.7538 27.9808 42.908 28.7017 42.908C29.522 42.908 30.1733 42.734 30.6555 42.3859C31.1427 42.033 31.3863 41.6104 31.3863 41.1182C31.3863 40.7205 31.2471 40.3874 30.9687 40.1189C30.6903 39.8455 30.2628 39.6416 29.6861 39.5074L27.777 39.0599C26.728 38.8114 25.9574 38.4261 25.4652 37.9041C24.978 37.3771 24.7344 36.7183 24.7344 35.9278C24.7344 35.2815 24.9158 34.7098 25.2787 34.2126C25.6466 33.7155 26.1463 33.3252 26.7777 33.0418C27.414 32.7585 28.1349 32.6168 28.9403 32.6168C30.0738 32.6168 30.9638 32.8653 31.6101 33.3625C32.2613 33.8597 32.7237 34.5159 32.9971 35.3313ZM40.8367 32.7659V34.2574H34.9006V32.7659H40.8367ZM36.6307 30.0216H38.3907V40.9392C38.3907 41.4364 38.4628 41.8092 38.607 42.0578C38.7561 42.3014 38.945 42.4655 39.1737 42.55C39.4074 42.6295 39.6535 42.6693 39.912 42.6693C40.1059 42.6693 40.265 42.6594 40.3893 42.6395C40.5136 42.6146 40.613 42.5947 40.6876 42.5798L41.0455 44.1608C40.9262 44.2055 40.7597 44.2503 40.5459 44.295C40.3321 44.3447 40.0611 44.3696 39.733 44.3696C39.2359 44.3696 38.7486 44.2627 38.2714 44.0489C37.7991 43.8352 37.4063 43.5095 37.0931 43.072C36.7849 42.6345 36.6307 42.0827 36.6307 41.4165V30.0216ZM49.6364 36.8526V38.4932H42.9546V36.8526H49.6364ZM49.9981 28.9477H52.116L56.3518 36.077H56.5308L60.7666 28.9477H62.8845L57.366 37.9264V44.2205H55.5166V37.9264L49.9981 28.9477ZM68.2202 44.4591C67.1165 44.4591 66.1645 44.2155 65.3641 43.7283C64.5686 43.2361 63.9546 42.55 63.5221 41.67C63.0945 40.7851 62.8807 39.756 62.8807 38.5827C62.8807 37.4094 63.0945 36.3753 63.5221 35.4804C63.9546 34.5805 64.5562 33.8795 65.3268 33.3774C66.1023 32.8703 67.0072 32.6168 68.0413 32.6168C68.6379 32.6168 69.227 32.7162 69.8087 32.9151C70.3903 33.1139 70.9198 33.4371 71.3971 33.8845C71.8744 34.327 72.2547 34.9136 72.5381 35.6445C72.8214 36.3753 72.9631 37.2751 72.9631 38.344V39.0898H64.1336V37.5685H71.1734C71.1734 36.9222 71.0441 36.3455 70.7856 35.8384C70.532 35.3313 70.1691 34.931 69.6968 34.6377C69.2295 34.3444 68.6776 34.1977 68.0413 34.1977C67.3403 34.1977 66.7337 34.3717 66.2217 34.7197C65.7146 35.0628 65.3243 35.5102 65.0508 36.0621C64.7774 36.6139 64.6407 37.2055 64.6407 37.8369V38.8511C64.6407 39.7162 64.7898 40.4495 65.0881 41.0511C65.3914 41.6477 65.8115 42.1026 66.3484 42.4158C66.8854 42.724 67.5093 42.8781 68.2202 42.8781C68.6826 42.8781 69.1002 42.8135 69.4731 42.6842C69.8509 42.55 70.1766 42.3511 70.45 42.0876C70.7234 41.8192 70.9347 41.4861 71.0839 41.0884L72.7842 41.5656C72.6052 42.1423 72.3044 42.6494 71.8818 43.0869C71.4592 43.5195 70.9372 43.8575 70.3158 44.1011C69.6943 44.3398 68.9958 44.4591 68.2202 44.4591ZM79.0111 44.4889C78.2852 44.4889 77.6265 44.3522 77.0349 44.0788C76.4432 43.8004 75.9734 43.4001 75.6254 42.8781C75.2774 42.3511 75.1034 41.7148 75.1034 40.969C75.1034 40.3128 75.2327 39.7808 75.4912 39.3732C75.7497 38.9605 76.0952 38.6374 76.5278 38.4037C76.9603 38.17 77.4376 37.996 77.9596 37.8817C78.4866 37.7624 79.016 37.6679 79.548 37.5983C80.244 37.5088 80.8083 37.4417 81.2408 37.397C81.6783 37.3472 81.9965 37.2652 82.1954 37.1509C82.3992 37.0365 82.5011 36.8376 82.5011 36.5543V36.4946C82.5011 35.7588 82.2998 35.1871 81.8971 34.7794C81.4994 34.3717 80.8953 34.1679 80.0849 34.1679C79.2447 34.1679 78.586 34.3519 78.1087 34.7197C77.6315 35.0876 77.2959 35.4804 77.102 35.898L75.4315 35.3014C75.7298 34.6054 76.1276 34.0635 76.6247 33.6757C77.1268 33.283 77.6737 33.0095 78.2653 32.8554C78.8619 32.6963 79.4486 32.6168 80.0253 32.6168C80.3932 32.6168 80.8158 32.6615 81.293 32.751C81.7753 32.8355 82.2401 33.012 82.6876 33.2805C83.14 33.5489 83.5153 33.9541 83.8136 34.496C84.1119 35.0379 84.2611 35.7638 84.2611 36.6736V44.2205H82.5011V42.6693H82.4116C82.2923 42.9179 82.0935 43.1839 81.8151 43.4673C81.5366 43.7506 81.1663 43.9918 80.7039 44.1906C80.2415 44.3895 79.6773 44.4889 79.0111 44.4889ZM79.2795 42.908C79.9756 42.908 80.5622 42.7712 81.0395 42.4978C81.5217 42.2244 81.8847 41.8714 82.1283 41.4389C82.3768 41.0063 82.5011 40.5514 82.5011 40.0742V38.4634C82.4266 38.5528 82.2625 38.6349 82.0089 38.7095C81.7604 38.7791 81.472 38.8412 81.1439 38.8959C80.8207 38.9456 80.505 38.9903 80.1968 39.0301C79.8935 39.0649 79.6474 39.0947 79.4585 39.1196C79.0011 39.1793 78.5736 39.2762 78.1758 39.4104C77.7831 39.5397 77.4649 39.7361 77.2213 39.9996C76.9827 40.2581 76.8633 40.6111 76.8633 41.0585C76.8633 41.67 77.0896 42.1324 77.542 42.4456C77.9994 42.7538 78.5785 42.908 79.2795 42.908ZM87.4733 44.2205V32.7659H89.1736V34.496H89.2929C89.5018 33.9293 89.8796 33.4694 90.4265 33.1164C90.9733 32.7634 91.5898 32.5869 92.2759 32.5869C92.4052 32.5869 92.5667 32.5894 92.7606 32.5944C92.9545 32.5994 93.1012 32.6068 93.2006 32.6168V34.4065C93.141 34.3916 93.0042 34.3693 92.7905 34.3394C92.5817 34.3046 92.3604 34.2872 92.1268 34.2872C91.5699 34.2872 91.0728 34.4041 90.6353 34.6377C90.2027 34.8664 89.8597 35.1846 89.6062 35.5923C89.3576 35.995 89.2333 36.4548 89.2333 36.9719V44.2205H87.4733ZM109.993 46.0102C108.471 46.0102 107.127 45.8014 105.958 45.3838C104.79 44.9712 103.808 44.3621 103.013 43.5568C102.217 42.7514 101.616 41.7645 101.208 40.5962C100.8 39.4278 100.596 38.0905 100.596 36.5841C100.596 35.1274 100.803 33.8249 101.215 32.6764C101.633 31.528 102.237 30.5536 103.028 29.7531C103.823 28.9477 104.788 28.3337 105.921 27.9112C107.06 27.4886 108.347 27.2773 109.784 27.2773C111.181 27.2773 112.404 27.506 113.453 27.9634C114.507 28.4158 115.387 29.0298 116.093 29.8053C116.804 30.5759 117.336 31.4435 117.689 32.408C118.047 33.3724 118.226 34.3668 118.226 35.3909C118.226 36.1118 118.191 36.8426 118.121 37.5834C118.052 38.3242 117.905 39.0053 117.681 39.6267C117.458 40.2432 117.112 40.7403 116.645 41.1182C116.182 41.496 115.556 41.6849 114.766 41.6849C114.418 41.6849 114.035 41.6303 113.617 41.5209C113.199 41.4115 112.829 41.23 112.506 40.9765C112.183 40.7229 111.991 40.3824 111.932 39.9548H111.842C111.723 40.2432 111.539 40.5166 111.29 40.7751C111.047 41.0337 110.726 41.24 110.328 41.3941C109.936 41.5482 109.456 41.6153 108.889 41.5955C108.243 41.5706 107.674 41.4264 107.181 41.1629C106.689 40.8945 106.277 40.5315 105.943 40.0742C105.615 39.6118 105.367 39.0773 105.198 38.4708C105.034 37.8593 104.952 37.2006 104.952 36.4946C104.952 35.8234 105.051 35.2095 105.25 34.6526C105.449 34.0958 105.725 33.6086 106.078 33.191C106.436 32.7734 106.853 32.4403 107.331 32.1917C107.813 31.9381 108.332 31.7815 108.889 31.7219C109.386 31.6722 109.839 31.6945 110.246 31.789C110.654 31.8785 110.99 32.0152 111.253 32.1992C111.517 32.3781 111.683 32.577 111.753 32.7957H111.842V31.9605H113.423V38.702C113.423 39.1196 113.54 39.4875 113.774 39.8057C114.007 40.1239 114.348 40.283 114.795 40.283C115.302 40.283 115.69 40.109 115.959 39.7609C116.232 39.4129 116.419 38.876 116.518 38.1501C116.622 37.4243 116.675 36.4946 116.675 35.3611C116.675 34.6949 116.583 34.0386 116.399 33.3923C116.22 32.7411 115.946 32.132 115.578 31.5653C115.215 30.9985 114.756 30.4989 114.199 30.0663C113.642 29.6338 112.988 29.2957 112.237 29.0521C111.492 28.8036 110.644 28.6793 109.694 28.6793C108.526 28.6793 107.48 28.8607 106.555 29.2237C105.635 29.5816 104.852 30.1061 104.206 30.7972C103.565 31.4832 103.075 32.3185 102.737 33.3028C102.404 34.2822 102.237 35.3959 102.237 36.6438C102.237 37.9115 102.404 39.0376 102.737 40.022C103.075 41.0063 103.572 41.8366 104.228 42.5127C104.889 43.1889 105.707 43.7034 106.682 44.0564C107.656 44.4044 108.78 44.5784 110.052 44.5784C110.599 44.5784 111.139 44.5262 111.671 44.4218C112.203 44.3174 112.672 44.2031 113.08 44.0788C113.488 43.9545 113.781 43.8625 113.96 43.8028L114.378 45.175C114.069 45.3043 113.667 45.4335 113.17 45.5628C112.677 45.692 112.15 45.7989 111.589 45.8835C111.032 45.968 110.5 46.0102 109.993 46.0102ZM109.128 40.0742C109.794 40.0742 110.333 39.9399 110.746 39.6715C111.159 39.403 111.459 38.9978 111.648 38.4559C111.837 37.914 111.932 37.2304 111.932 36.4051C111.932 35.5699 111.827 34.9186 111.618 34.4513C111.41 33.984 111.101 33.6558 110.694 33.4669C110.286 33.278 109.784 33.1835 109.187 33.1835C108.621 33.1835 108.136 33.3327 107.733 33.631C107.335 33.9243 107.03 34.317 106.816 34.8092C106.607 35.2965 106.503 35.8284 106.503 36.4051C106.503 37.0415 106.587 37.6406 106.756 38.2023C106.925 38.7592 107.201 39.2116 107.584 39.5596C107.967 39.9026 108.481 40.0742 109.128 40.0742ZM127.005 44.2205V28.9477H128.854V35.7489H136.998V28.9477H138.847V44.2205H136.998V37.3895H128.854V44.2205H127.005ZM145.682 44.4889C144.956 44.4889 144.297 44.3522 143.706 44.0788C143.114 43.8004 142.644 43.4001 142.296 42.8781C141.948 42.3511 141.774 41.7148 141.774 40.969C141.774 40.3128 141.904 39.7808 142.162 39.3732C142.421 38.9605 142.766 38.6374 143.199 38.4037C143.631 38.17 144.108 37.996 144.63 37.8817C145.157 37.7624 145.687 37.6679 146.219 37.5983C146.915 37.5088 147.479 37.4417 147.912 37.397C148.349 37.3472 148.667 37.2652 148.866 37.1509C149.07 37.0365 149.172 36.8376 149.172 36.5543V36.4946C149.172 35.7588 148.971 35.1871 148.568 34.7794C148.17 34.3717 147.566 34.1679 146.756 34.1679C145.916 34.1679 145.257 34.3519 144.78 34.7197C144.302 35.0876 143.967 35.4804 143.773 35.898L142.102 35.3014C142.401 34.6054 142.798 34.0635 143.296 33.6757C143.798 33.283 144.345 33.0095 144.936 32.8554C145.533 32.6963 146.119 32.6168 146.696 32.6168C147.064 32.6168 147.487 32.6615 147.964 32.751C148.446 32.8355 148.911 33.012 149.358 33.2805C149.811 33.5489 150.186 33.9541 150.485 34.496C150.783 35.0379 150.932 35.7638 150.932 36.6736V44.2205H149.172V42.6693H149.083C148.963 42.9179 148.764 43.1839 148.486 43.4673C148.208 43.7506 147.837 43.9918 147.375 44.1906C146.912 44.3895 146.348 44.4889 145.682 44.4889ZM145.95 42.908C146.646 42.908 147.233 42.7712 147.71 42.4978C148.193 42.2244 148.556 41.8714 148.799 41.4389C149.048 41.0063 149.172 40.5514 149.172 40.0742V38.4634C149.097 38.5528 148.933 38.6349 148.68 38.7095C148.431 38.7791 148.143 38.8412 147.815 38.8959C147.492 38.9456 147.176 38.9903 146.868 39.0301C146.564 39.0649 146.318 39.0947 146.129 39.1196C145.672 39.1793 145.244 39.2762 144.847 39.4104C144.454 39.5397 144.136 39.7361 143.892 39.9996C143.654 40.2581 143.534 40.6111 143.534 41.0585C143.534 41.67 143.76 42.1324 144.213 42.4456C144.67 42.7538 145.249 42.908 145.95 42.908ZM154.144 44.2205V32.7659H155.845V34.496H155.964C156.173 33.9293 156.55 33.4694 157.097 33.1164C157.644 32.7634 158.261 32.5869 158.947 32.5869C159.076 32.5869 159.238 32.5894 159.432 32.5944C159.625 32.5994 159.772 32.6068 159.872 32.6168V34.4065C159.812 34.3916 159.675 34.3693 159.461 34.3394C159.253 34.3046 159.031 34.2872 158.798 34.2872C158.241 34.2872 157.744 34.4041 157.306 34.6377C156.874 34.8664 156.531 35.1846 156.277 35.5923C156.028 35.995 155.904 36.4548 155.904 36.9719V44.2205H154.144ZM171.673 32.7659L167.437 44.2205H165.647L161.411 32.7659H163.321L166.482 41.8938H166.602L169.764 32.7659H171.673ZM177.018 44.4889C176.292 44.4889 175.633 44.3522 175.042 44.0788C174.45 43.8004 173.98 43.4001 173.632 42.8781C173.284 42.3511 173.11 41.7148 173.11 40.969C173.11 40.3128 173.24 39.7808 173.498 39.3732C173.757 38.9605 174.102 38.6374 174.535 38.4037C174.967 38.17 175.444 37.996 175.966 37.8817C176.493 37.7624 177.023 37.6679 177.555 37.5983C178.251 37.5088 178.815 37.4417 179.248 37.397C179.685 37.3472 180.003 37.2652 180.202 37.1509C180.406 37.0365 180.508 36.8376 180.508 36.5543V36.4946C180.508 35.7588 180.307 35.1871 179.904 34.7794C179.506 34.3717 178.902 34.1679 178.092 34.1679C177.252 34.1679 176.593 34.3519 176.116 34.7197C175.638 35.0876 175.303 35.4804 175.109 35.898L173.438 35.3014C173.737 34.6054 174.134 34.0635 174.632 33.6757C175.134 33.283 175.681 33.0095 176.272 32.8554C176.869 32.6963 177.455 32.6168 178.032 32.6168C178.4 32.6168 178.823 32.6615 179.3 32.751C179.782 32.8355 180.247 33.012 180.694 33.2805C181.147 33.5489 181.522 33.9541 181.82 34.496C182.119 35.0379 182.268 35.7638 182.268 36.6736V44.2205H180.508V42.6693H180.418C180.299 42.9179 180.1 43.1839 179.822 43.4673C179.543 43.7506 179.173 43.9918 178.711 44.1906C178.248 44.3895 177.684 44.4889 177.018 44.4889ZM177.286 42.908C177.982 42.908 178.569 42.7712 179.046 42.4978C179.529 42.2244 179.891 41.8714 180.135 41.4389C180.384 41.0063 180.508 40.5514 180.508 40.0742V38.4634C180.433 38.5528 180.269 38.6349 180.016 38.7095C179.767 38.7791 179.479 38.8412 179.151 38.8959C178.828 38.9456 178.512 38.9903 178.204 39.0301C177.9 39.0649 177.654 39.0947 177.465 39.1196C177.008 39.1793 176.58 39.2762 176.183 39.4104C175.79 39.5397 175.472 39.7361 175.228 39.9996C174.99 40.2581 174.87 40.6111 174.87 41.0585C174.87 41.67 175.096 42.1324 175.549 42.4456C176.006 42.7538 176.585 42.908 177.286 42.908ZM185.48 44.2205V32.7659H187.18V34.496H187.3C187.509 33.9293 187.886 33.4694 188.433 33.1164C188.98 32.7634 189.597 32.5869 190.283 32.5869C190.412 32.5869 190.574 32.5894 190.767 32.5944C190.961 32.5994 191.108 32.6068 191.207 32.6168V34.4065C191.148 34.3916 191.011 34.3693 190.797 34.3394C190.588 34.3046 190.367 34.2872 190.134 34.2872C189.577 34.2872 189.08 34.4041 188.642 34.6377C188.21 34.8664 187.867 35.1846 187.613 35.5923C187.364 35.995 187.24 36.4548 187.24 36.9719V44.2205H185.48ZM197.27 44.4591C196.316 44.4591 195.473 44.218 194.742 43.7357C194.011 43.2485 193.44 42.5624 193.027 41.6775C192.614 40.7876 192.408 39.7361 192.408 38.523C192.408 37.3199 192.614 36.2759 193.027 35.3909C193.44 34.506 194.014 33.8224 194.75 33.3401C195.486 32.8579 196.336 32.6168 197.3 32.6168C198.046 32.6168 198.635 32.7411 199.068 32.9896C199.505 33.2332 199.838 33.5117 200.067 33.8249C200.3 34.1331 200.482 34.3867 200.611 34.5855H200.76V28.9477H202.52V44.2205H200.82V42.4605H200.611C200.482 42.6693 200.298 42.9328 200.059 43.251C199.821 43.5642 199.48 43.8451 199.038 44.0937C198.595 44.3373 198.006 44.4591 197.27 44.4591ZM197.509 42.8781C198.215 42.8781 198.812 42.6942 199.299 42.3263C199.786 41.9534 200.156 41.4389 200.41 40.7826C200.663 40.1214 200.79 39.3582 200.79 38.4932C200.79 37.6381 200.666 36.8898 200.417 36.2485C200.169 35.6022 199.801 35.1001 199.314 34.7421C198.826 34.3792 198.225 34.1977 197.509 34.1977C196.763 34.1977 196.142 34.3891 195.645 34.772C195.152 35.1498 194.782 35.6644 194.533 36.3156C194.29 36.9619 194.168 37.6878 194.168 38.4932C194.168 39.3085 194.292 40.0493 194.541 40.7155C194.794 41.3767 195.167 41.9037 195.66 42.2965C196.157 42.6842 196.773 42.8781 197.509 42.8781ZM13.525 60.3313L11.944 60.7787C11.8446 60.5152 11.6979 60.2592 11.504 60.0106C11.3151 59.757 11.0566 59.5482 10.7284 59.3842C10.4003 59.2201 9.98022 59.1381 9.46815 59.1381C8.76716 59.1381 8.18299 59.2996 7.71567 59.6228C7.25331 59.941 7.02213 60.3462 7.02213 60.8384C7.02213 61.2759 7.18122 61.6214 7.4994 61.8749C7.81758 62.1285 8.31474 62.3398 8.99088 62.5088L10.6912 62.9264C11.7153 63.175 12.4784 63.5553 12.9806 64.0674C13.4827 64.5745 13.7338 65.2283 13.7338 66.0287C13.7338 66.6849 13.5449 67.2716 13.167 67.7886C12.7941 68.3057 12.2721 68.7134 11.601 69.0117C10.9298 69.3099 10.1493 69.4591 9.25934 69.4591C8.09102 69.4591 7.12405 69.2055 6.35842 68.6984C5.5928 68.1913 5.10807 67.4506 4.90423 66.4761L6.57469 66.0585C6.73378 66.675 7.03456 67.1374 7.47703 67.4456C7.92447 67.7538 8.50863 67.908 9.22951 67.908C10.0498 67.908 10.7011 67.734 11.1833 67.3859C11.6706 67.033 11.9142 66.6104 11.9142 66.1182C11.9142 65.7205 11.775 65.3874 11.4966 65.1189C11.2182 64.8455 10.7906 64.6416 10.2139 64.5074L8.3048 64.0599C7.25579 63.8114 6.4852 63.4261 5.99301 62.9041C5.50579 62.3771 5.26218 61.7183 5.26218 60.9278C5.26218 60.2815 5.44365 59.7098 5.80657 59.2126C6.17447 58.7155 6.67412 58.3252 7.30551 58.0418C7.94187 57.7585 8.66275 57.6168 9.46815 57.6168C10.6017 57.6168 11.4916 57.8653 12.1379 58.3625C12.7892 58.8597 13.2515 59.5159 13.525 60.3313ZM21.3645 57.7659V59.2574H15.4285V57.7659H21.3645ZM17.1586 55.0216H18.9185V65.9392C18.9185 66.4364 18.9906 66.8092 19.1348 67.0578C19.2839 67.3014 19.4729 67.4655 19.7015 67.55C19.9352 67.6295 20.1813 67.6693 20.4398 67.6693C20.6337 67.6693 20.7928 67.6594 20.9171 67.6395C21.0414 67.6146 21.1408 67.5947 21.2154 67.5798L21.5734 69.1608C21.454 69.2055 21.2875 69.2503 21.0737 69.295C20.8599 69.3447 20.589 69.3696 20.2609 69.3696C19.7637 69.3696 19.2765 69.2627 18.7992 69.0489C18.3269 68.8352 17.9341 68.5095 17.6209 68.072C17.3127 67.6345 17.1586 67.0827 17.1586 66.4165V55.0216ZM31.2307 64.5372V57.7659H32.9906V69.2205H31.2307V67.2815H31.1114C30.8429 67.8632 30.4253 68.3579 29.8585 68.7656C29.2917 69.1683 28.5758 69.3696 27.7108 69.3696C26.9949 69.3696 26.3585 69.213 25.8017 68.8998C25.2449 68.5816 24.8074 68.1043 24.4892 67.468C24.171 66.8266 24.0119 66.0188 24.0119 65.0443V57.7659H25.7719V64.925C25.7719 65.7602 26.0055 66.4264 26.4729 66.9236C26.9452 67.4207 27.5467 67.6693 28.2775 67.6693C28.715 67.6693 29.16 67.5575 29.6124 67.3337C30.0698 67.11 30.4526 66.767 30.7609 66.3046C31.0741 65.8423 31.2307 65.2531 31.2307 64.5372ZM40.5394 69.4591C39.5848 69.4591 38.7421 69.218 38.0113 68.7357C37.2805 68.2485 36.7087 67.5624 36.2961 66.6775C35.8835 65.7876 35.6771 64.7361 35.6771 63.523C35.6771 62.3199 35.8835 61.2759 36.2961 60.3909C36.7087 59.506 37.283 58.8224 38.0188 58.3401C38.7546 57.8579 39.6047 57.6168 40.5692 57.6168C41.3149 57.6168 41.9041 57.7411 42.3366 57.9896C42.7741 58.2332 43.1072 58.5117 43.3359 58.8249C43.5695 59.1331 43.751 59.3867 43.8803 59.5855H44.0294V53.9477H45.7894V69.2205H44.0891V67.4605H43.8803C43.751 67.6693 43.5671 67.9328 43.3284 68.251C43.0898 68.5642 42.7492 68.8451 42.3068 69.0937C41.8643 69.3373 41.2751 69.4591 40.5394 69.4591ZM40.778 67.8781C41.484 67.8781 42.0805 67.6942 42.5678 67.3263C43.055 66.9534 43.4254 66.4389 43.6789 65.7826C43.9325 65.1214 44.0592 64.3582 44.0592 63.4932C44.0592 62.6381 43.9349 61.8898 43.6864 61.2485C43.4378 60.6022 43.0699 60.1001 42.5827 59.7421C42.0955 59.3792 41.4939 59.1977 40.778 59.1977C40.0322 59.1977 39.4108 59.3891 38.9136 59.772C38.4215 60.1498 38.0511 60.6644 37.8025 61.3156C37.5589 61.9619 37.4371 62.6878 37.4371 63.4932C37.4371 64.3085 37.5614 65.0493 37.8099 65.7155C38.0635 66.3767 38.4364 66.9037 38.9286 67.2965C39.4257 67.6842 40.0422 67.8781 40.778 67.8781ZM50.3906 73.5159C50.0923 73.5159 49.8263 73.4911 49.5926 73.4413C49.359 73.3966 49.1974 73.3519 49.1079 73.3071L49.5553 71.756C49.9829 71.8653 50.3607 71.9051 50.6889 71.8753C51.017 71.8455 51.3078 71.6988 51.5614 71.4353C51.8199 71.1768 52.056 70.7567 52.2698 70.175L52.5979 69.2801L48.3621 57.7659H50.2712L53.4332 66.8938H53.5525L56.7144 57.7659H58.6235L53.7613 70.8909C53.5425 71.4825 53.2716 71.9722 52.9484 72.36C52.6253 72.7528 52.2499 73.0436 51.8224 73.2325C51.3998 73.4215 50.9225 73.5159 50.3906 73.5159ZM60.9465 69.2205V57.7659H62.7064V69.2205H60.9465ZM61.8414 55.8568C61.4983 55.8568 61.2025 55.74 60.9539 55.5063C60.7103 55.2727 60.5885 54.9918 60.5885 54.6636C60.5885 54.3355 60.7103 54.0546 60.9539 53.821C61.2025 53.5873 61.4983 53.4705 61.8414 53.4705C62.1844 53.4705 62.4777 53.5873 62.7213 53.821C62.9699 54.0546 63.0942 54.3355 63.0942 54.6636C63.0942 54.9918 62.9699 55.2727 62.7213 55.5063C62.4777 55.74 62.1844 55.8568 61.8414 55.8568ZM67.6898 62.3298V69.2205H65.9299V57.7659H67.6302V59.5557H67.7793C68.0478 58.974 68.4555 58.5067 69.0023 58.1537C69.5492 57.7957 70.2552 57.6168 71.1202 57.6168C71.8958 57.6168 72.5744 57.7759 73.1561 58.094C73.7378 58.4072 74.1902 58.8845 74.5133 59.5259C74.8365 60.1622 74.9981 60.9676 74.9981 61.942V69.2205H73.2381V62.0614C73.2381 61.1615 73.0045 60.4605 72.5371 59.9584C72.0698 59.4513 71.4285 59.1977 70.6131 59.1977C70.0513 59.1977 69.5492 59.3195 69.1067 59.5631C68.6692 59.8068 68.3237 60.1622 68.0702 60.6295C67.8166 61.0969 67.6898 61.6636 67.6898 62.3298ZM82.8376 73.7545C81.9875 73.7545 81.2567 73.6452 80.6452 73.4264C80.0337 73.2126 79.5241 72.9293 79.1164 72.5763C78.7137 72.2283 78.393 71.8554 78.1544 71.4577L79.5564 70.4733C79.7155 70.6821 79.9168 70.9207 80.1604 71.1892C80.4041 71.4626 80.7371 71.6988 81.1597 71.8977C81.5873 72.1015 82.1466 72.2034 82.8376 72.2034C83.7624 72.2034 84.5255 71.9797 85.1271 71.5322C85.7286 71.0848 86.0294 70.3838 86.0294 69.4293V67.1026H85.8803C85.751 67.3114 85.5671 67.5699 85.3284 67.8781C85.0947 68.1814 84.7567 68.4523 84.3142 68.691C83.8767 68.9246 83.2851 69.0415 82.5394 69.0415C81.6146 69.0415 80.7844 68.8227 80.0486 68.3852C79.3178 67.9477 78.7386 67.3114 78.311 66.4761C77.8884 65.6409 77.6771 64.6267 77.6771 63.4335C77.6771 62.2602 77.8835 61.2386 78.2961 60.3685C78.7087 59.4935 79.283 58.8174 80.0188 58.3401C80.7546 57.8579 81.6047 57.6168 82.5692 57.6168C83.3149 57.6168 83.9065 57.7411 84.344 57.9896C84.7865 58.2332 85.1246 58.5117 85.3582 58.8249C85.5969 59.1331 85.7808 59.3867 85.9101 59.5855H86.0891V57.7659H87.7894V69.5486C87.7894 70.533 87.5656 71.3334 87.1182 71.9499C86.6757 72.5713 86.0791 73.0262 85.3284 73.3146C84.5827 73.6079 83.7524 73.7545 82.8376 73.7545ZM82.778 67.4605C83.484 67.4605 84.0805 67.2989 84.5678 66.9758C85.055 66.6526 85.4254 66.1878 85.6789 65.5813C85.9325 64.9747 86.0592 64.2489 86.0592 63.4037C86.0592 62.5784 85.9349 61.8501 85.6864 61.2187C85.4378 60.5873 85.0699 60.0926 84.5827 59.7347C84.0955 59.3767 83.4939 59.1977 82.778 59.1977C82.0322 59.1977 81.4108 59.3867 80.9136 59.7645C80.4215 60.1423 80.0511 60.6494 79.8025 61.2858C79.5589 61.9222 79.4371 62.6281 79.4371 63.4037C79.4371 64.1992 79.5614 64.9026 79.8099 65.5141C80.0635 66.1207 80.4364 66.5979 80.9286 66.946C81.4257 67.289 82.0422 67.4605 82.778 67.4605ZM109.446 58.7205H107.596C107.487 58.1885 107.295 57.7212 107.022 57.3185C106.753 56.9158 106.425 56.5777 106.038 56.3043C105.655 56.0259 105.23 55.817 104.762 55.6778C104.295 55.5386 103.808 55.469 103.301 55.469C102.376 55.469 101.538 55.7027 100.788 56.17C100.042 56.6374 99.4477 57.3259 99.0053 58.2357C98.5678 59.1455 98.349 60.2617 98.349 61.5841C98.349 62.9065 98.5678 64.0227 99.0053 64.9325C99.4477 65.8423 100.042 66.5308 100.788 66.9982C101.538 67.4655 102.376 67.6992 103.301 67.6992C103.808 67.6992 104.295 67.6295 104.762 67.4903C105.23 67.3511 105.655 67.1448 106.038 66.8714C106.425 66.593 106.753 66.2524 107.022 65.8497C107.295 65.442 107.487 64.9747 107.596 64.4477H109.446C109.306 65.2283 109.053 65.9268 108.685 66.5433C108.317 67.1597 107.86 67.6842 107.313 68.1168C106.766 68.5443 106.152 68.87 105.471 69.0937C104.795 69.3174 104.071 69.4293 103.301 69.4293C101.998 69.4293 100.84 69.1111 99.8256 68.4747C98.8114 67.8384 98.0134 66.9335 97.4318 65.7602C96.8501 64.5869 96.5592 63.1949 96.5592 61.5841C96.5592 59.9733 96.8501 58.5813 97.4318 57.408C98.0134 56.2347 98.8114 55.3298 99.8256 54.6935C100.84 54.0571 101.998 53.7389 103.301 53.7389C104.071 53.7389 104.795 53.8508 105.471 54.0745C106.152 54.2982 106.766 54.6264 107.313 55.0589C107.86 55.4864 108.317 56.0085 108.685 56.6249C109.053 57.2364 109.306 57.9349 109.446 58.7205ZM120.786 57.7659C120.697 57.0102 120.334 56.4236 119.698 56.006C119.061 55.5884 118.281 55.3795 117.356 55.3795C116.68 55.3795 116.088 55.4889 115.581 55.7077C115.079 55.9264 114.686 56.2272 114.403 56.61C114.124 56.9928 113.985 57.4278 113.985 57.9151C113.985 58.3227 114.082 58.6732 114.276 58.9666C114.475 59.2549 114.729 59.496 115.037 59.6899C115.345 59.8788 115.668 60.0354 116.006 60.1597C116.344 60.2791 116.655 60.376 116.938 60.4506L118.49 60.8682C118.887 60.9726 119.33 61.1168 119.817 61.3007C120.309 61.4847 120.779 61.7357 121.226 62.0539C121.679 62.3671 122.052 62.7698 122.345 63.262C122.638 63.7542 122.785 64.3582 122.785 65.0742C122.785 65.8994 122.569 66.6452 122.136 67.3114C121.709 67.9776 121.082 68.507 120.257 68.8998C119.437 69.2925 118.44 69.4889 117.267 69.4889C116.173 69.4889 115.226 69.3124 114.425 68.9595C113.63 68.6065 113.003 68.1143 112.546 67.4829C112.094 66.8515 111.838 66.1182 111.778 65.283H113.687C113.737 65.8597 113.931 66.3369 114.269 66.7148C114.612 67.0876 115.044 67.3661 115.566 67.55C116.093 67.729 116.66 67.8185 117.267 67.8185C117.973 67.8185 118.606 67.7041 119.168 67.4754C119.73 67.2418 120.175 66.9186 120.503 66.506C120.831 66.0884 120.995 65.6011 120.995 65.0443C120.995 64.5372 120.854 64.1246 120.57 63.8064C120.287 63.4882 119.914 63.2297 119.452 63.0308C118.989 62.832 118.49 62.658 117.953 62.5088L116.073 61.9719C114.88 61.6288 113.936 61.1391 113.24 60.5028C112.544 59.8664 112.196 59.0337 112.196 58.0045C112.196 57.1494 112.427 56.4037 112.889 55.7673C113.356 55.126 113.983 54.6288 114.768 54.2759C115.559 53.9179 116.441 53.7389 117.416 53.7389C118.4 53.7389 119.275 53.9154 120.041 54.2684C120.806 54.6164 121.413 55.0937 121.86 55.7002C122.313 56.3068 122.551 56.9953 122.576 57.7659H120.786ZM135.968 66.5358V56.692H137.638V66.5358H135.968ZM131.881 62.4492V60.7787H141.725V62.4492H131.881ZM151.481 69.2205V53.9477H160.698V55.5884H153.33V60.7489H160.221V62.3895H153.33V67.5798H160.818V69.2205H151.481ZM168.447 69.4591C167.373 69.4591 166.448 69.2055 165.672 68.6984C164.897 68.1913 164.3 67.4928 163.883 66.6029C163.465 65.713 163.256 64.6963 163.256 63.5528C163.256 62.3895 163.47 61.3629 163.898 60.4729C164.33 59.5781 164.932 58.8795 165.702 58.3774C166.478 57.8703 167.383 57.6168 168.417 57.6168C169.222 57.6168 169.948 57.7659 170.594 58.0642C171.241 58.3625 171.77 58.7801 172.183 59.317C172.595 59.854 172.851 60.4804 172.951 61.1963H171.191C171.057 60.6743 170.758 60.2119 170.296 59.8092C169.839 59.4016 169.222 59.1977 168.447 59.1977C167.76 59.1977 167.159 59.3767 166.642 59.7347C166.13 60.0876 165.73 60.5873 165.441 61.2336C165.158 61.8749 165.016 62.6281 165.016 63.4932C165.016 64.3781 165.155 65.1487 165.434 65.805C165.717 66.4612 166.115 66.9708 166.627 67.3337C167.144 67.6967 167.751 67.8781 168.447 67.8781C168.904 67.8781 169.319 67.7986 169.692 67.6395C170.065 67.4804 170.381 67.2517 170.639 66.9534C170.898 66.6551 171.082 66.2972 171.191 65.8795H172.951C172.851 66.5557 172.605 67.1647 172.213 67.7066C171.825 68.2435 171.31 68.6711 170.669 68.9893C170.033 69.3025 169.292 69.4591 168.447 69.4591ZM180.177 69.4591C179.143 69.4591 178.236 69.213 177.455 68.7208C176.68 68.2286 176.073 67.5401 175.635 66.6551C175.203 65.7702 174.987 64.7361 174.987 63.5528C174.987 62.3597 175.203 61.3181 175.635 60.4282C176.073 59.5383 176.68 58.8472 177.455 58.355C178.236 57.8629 179.143 57.6168 180.177 57.6168C181.211 57.6168 182.116 57.8629 182.892 58.355C183.672 58.8472 184.279 59.5383 184.711 60.4282C185.149 61.3181 185.367 62.3597 185.367 63.5528C185.367 64.7361 185.149 65.7702 184.711 66.6551C184.279 67.5401 183.672 68.2286 182.892 68.7208C182.116 69.213 181.211 69.4591 180.177 69.4591ZM180.177 67.8781C180.963 67.8781 181.609 67.6768 182.116 67.2741C182.623 66.8714 182.998 66.3419 183.242 65.6857C183.486 65.0294 183.607 64.3185 183.607 63.5528C183.607 62.7872 183.486 62.0738 183.242 61.4126C182.998 60.7514 182.623 60.2169 182.116 59.8092C181.609 59.4016 180.963 59.1977 180.177 59.1977C179.392 59.1977 178.745 59.4016 178.238 59.8092C177.731 60.2169 177.356 60.7514 177.112 61.4126C176.868 62.0738 176.747 62.7872 176.747 63.5528C176.747 64.3185 176.868 65.0294 177.112 65.6857C177.356 66.3419 177.731 66.8714 178.238 67.2741C178.745 67.6768 179.392 67.8781 180.177 67.8781ZM189.814 62.3298V69.2205H188.054V57.7659H189.754V59.5557H189.903C190.172 58.974 190.579 58.5067 191.126 58.1537C191.673 57.7957 192.379 57.6168 193.244 57.6168C194.02 57.6168 194.698 57.7759 195.28 58.094C195.862 58.4072 196.314 58.8845 196.637 59.5259C196.961 60.1622 197.122 60.9676 197.122 61.942V69.2205H195.362V62.0614C195.362 61.1615 195.128 60.4605 194.661 59.9584C194.194 59.4513 193.552 59.1977 192.737 59.1977C192.175 59.1977 191.673 59.3195 191.231 59.5631C190.793 59.8068 190.448 60.1622 190.194 60.6295C189.941 61.0969 189.814 61.6636 189.814 62.3298Z" fill="black"/>
</svg>
