<svg width="203" height="73" viewBox="0 0 203 73" fill="none" xmlns="http://www.w3.org/2000/svg">
<path d="M21.2278 18.4304V0.248601H25.0719V7.75038H32.8756V0.248601H36.7108V18.4304H32.8756V10.9198H25.0719V18.4304H21.2278ZM43.6977 18.6879C42.8276 18.6879 42.0523 18.537 41.3717 18.2351C40.691 17.9273 40.1524 17.4746 39.7559 16.8768C39.3653 16.2731 39.17 15.5214 39.17 14.6218C39.17 13.8643 39.309 13.228 39.5872 12.7131C39.8654 12.1982 40.2442 11.7839 40.7236 11.4702C41.203 11.1565 41.7475 10.9198 42.3571 10.76C42.9726 10.6002 43.6178 10.4877 44.2925 10.4226C45.0856 10.3397 45.7248 10.2628 46.2101 10.1918C46.6954 10.1148 47.0476 10.0024 47.2665 9.85443C47.4855 9.70646 47.595 9.48747 47.595 9.19747V9.1442C47.595 8.58194 47.4175 8.14692 47.0624 7.83916C46.7132 7.53139 46.216 7.37751 45.5709 7.37751C44.8902 7.37751 44.3487 7.52843 43.9462 7.83028C43.5438 8.12621 43.2774 8.49908 43.1472 8.94889L39.6494 8.66479C39.8269 7.8362 40.1761 7.12005 40.6969 6.51636C41.2178 5.90674 41.8895 5.43918 42.7122 5.11366C43.5408 4.78222 44.4996 4.6165 45.5886 4.6165C46.3462 4.6165 47.0712 4.70528 47.7637 4.88283C48.4621 5.06039 49.0806 5.3356 49.6192 5.70847C50.1637 6.08134 50.5928 6.56075 50.9065 7.14668C51.2201 7.7267 51.377 8.42213 51.377 9.23298V18.4304H47.7903V16.5394H47.6838C47.4648 16.9656 47.1718 17.3414 46.8049 17.6669C46.4379 17.9865 45.997 18.2381 45.4821 18.4215C44.9672 18.5991 44.3724 18.6879 43.6977 18.6879ZM44.7808 16.0778C45.3371 16.0778 45.8283 15.9683 46.2545 15.7493C46.6806 15.5244 47.015 15.2226 47.2577 14.8438C47.5003 14.465 47.6217 14.0359 47.6217 13.5565V12.1094C47.5033 12.1863 47.3405 12.2574 47.1334 12.3225C46.9321 12.3817 46.7043 12.4379 46.4498 12.4911C46.1953 12.5385 45.9408 12.5829 45.6863 12.6243C45.4318 12.6598 45.201 12.6924 44.9938 12.722C44.5499 12.7871 44.1623 12.8906 43.8308 13.0327C43.4994 13.1747 43.2419 13.3671 43.0584 13.6098C42.875 13.8465 42.7832 14.1424 42.7832 14.4975C42.7832 15.0125 42.9697 15.406 43.3425 15.6783C43.7213 15.9446 44.2007 16.0778 44.7808 16.0778ZM58.0931 10.5469V18.4304H54.3111V4.79406H57.9155V7.19995H58.0753C58.3772 6.40686 58.8832 5.7795 59.5934 5.31785C60.3037 4.85028 61.1648 4.6165 62.1769 4.6165C63.1238 4.6165 63.9495 4.82365 64.6538 5.23795C65.3581 5.65225 65.9056 6.2441 66.2962 7.01352C66.6868 7.77701 66.8821 8.68847 66.8821 9.74789V18.4304H63.1002V10.4226C63.1061 9.58809 62.893 8.93705 62.461 8.46948C62.0289 7.996 61.4341 7.75926 60.6765 7.75926C60.1675 7.75926 59.7177 7.86875 59.3271 8.08773C58.9424 8.30672 58.6405 8.62632 58.4216 9.04654C58.2085 9.46084 58.099 9.96096 58.0931 10.5469ZM73.6448 10.5469V18.4304H69.8629V4.79406H73.4673V7.19995H73.6271C73.9289 6.40686 74.435 5.7795 75.1452 5.31785C75.8554 4.85028 76.7166 4.6165 77.7286 4.6165C78.6756 4.6165 79.5012 4.82365 80.2056 5.23795C80.9099 5.65225 81.4573 6.2441 81.848 7.01352C82.2386 7.77701 82.4339 8.68847 82.4339 9.74789V18.4304H78.6519V10.4226C78.6579 9.58809 78.4448 8.93705 78.0127 8.46948C77.5807 7.996 76.9859 7.75926 76.2283 7.75926C75.7193 7.75926 75.2695 7.86875 74.8789 8.08773C74.4941 8.30672 74.1923 8.62632 73.9733 9.04654C73.7602 9.46084 73.6507 9.96096 73.6448 10.5469ZM89.3031 18.6879C88.4331 18.6879 87.6578 18.537 86.9771 18.2351C86.2965 17.9273 85.7579 17.4746 85.3614 16.8768C84.9707 16.2731 84.7754 15.5214 84.7754 14.6218C84.7754 13.8643 84.9145 13.228 85.1927 12.7131C85.4709 12.1982 85.8496 11.7839 86.329 11.4702C86.8084 11.1565 87.353 10.9198 87.9626 10.76C88.5781 10.6002 89.2232 10.4877 89.8979 10.4226C90.691 10.3397 91.3302 10.2628 91.8156 10.1918C92.3009 10.1148 92.653 10.0024 92.872 9.85443C93.091 9.70646 93.2005 9.48747 93.2005 9.19747V9.1442C93.2005 8.58194 93.0229 8.14692 92.6678 7.83916C92.3186 7.53139 91.8215 7.37751 91.1763 7.37751C90.4957 7.37751 89.9542 7.52843 89.5517 7.83028C89.1492 8.12621 88.8829 8.49908 88.7527 8.94889L85.2548 8.66479C85.4324 7.8362 85.7816 7.12005 86.3024 6.51636C86.8232 5.90674 87.495 5.43918 88.3177 5.11366C89.1463 4.78222 90.1051 4.6165 91.1941 4.6165C91.9517 4.6165 92.6767 4.70528 93.3692 4.88283C94.0676 5.06039 94.6861 5.3356 95.2246 5.70847C95.7692 6.08134 96.1982 6.56075 96.5119 7.14668C96.8256 7.7267 96.9825 8.42213 96.9825 9.23298V18.4304H93.3958V16.5394H93.2893C93.0703 16.9656 92.7773 17.3414 92.4104 17.6669C92.0434 17.9865 91.6025 18.2381 91.0876 18.4215C90.5727 18.5991 89.9778 18.6879 89.3031 18.6879ZM90.3862 16.0778C90.9426 16.0778 91.4338 15.9683 91.8599 15.7493C92.2861 15.5244 92.6205 15.2226 92.8631 14.8438C93.1058 14.465 93.2271 14.0359 93.2271 13.5565V12.1094C93.1088 12.1863 92.946 12.2574 92.7388 12.3225C92.5376 12.3817 92.3098 12.4379 92.0553 12.4911C91.8008 12.5385 91.5463 12.5829 91.2918 12.6243C91.0373 12.6598 90.8064 12.6924 90.5993 12.722C90.1554 12.7871 89.7677 12.8906 89.4363 13.0327C89.1049 13.1747 88.8474 13.3671 88.6639 13.6098C88.4804 13.8465 88.3887 14.1424 88.3887 14.4975C88.3887 15.0125 88.5751 15.406 88.948 15.6783C89.3268 15.9446 89.8062 16.0778 90.3862 16.0778ZM103.699 10.5469V18.4304H99.9166V0.248601H103.592V7.19995H103.752C104.06 6.39503 104.557 5.7647 105.243 5.30897C105.93 4.84732 106.791 4.6165 107.827 4.6165C108.774 4.6165 109.599 4.82365 110.304 5.23795C111.014 5.64633 111.564 6.23523 111.955 7.00464C112.351 7.76813 112.547 8.68255 112.541 9.74789V18.4304H108.759V10.4226C108.765 9.58217 108.552 8.92817 108.12 8.4606C107.694 7.99304 107.096 7.75926 106.326 7.75926C105.811 7.75926 105.356 7.86875 104.959 8.08773C104.569 8.30672 104.261 8.62632 104.036 9.04654C103.817 9.46084 103.704 9.96096 103.699 10.5469ZM131.238 5.47765C131.167 4.7615 130.862 4.20516 130.323 3.80862C129.785 3.41207 129.054 3.2138 128.13 3.2138C127.503 3.2138 126.973 3.30258 126.541 3.48014C126.109 3.65177 125.778 3.89148 125.547 4.19924C125.322 4.50701 125.21 4.8562 125.21 5.24683C125.198 5.57235 125.266 5.85644 125.414 6.0991C125.568 6.34176 125.778 6.55187 126.044 6.72943C126.31 6.90106 126.618 7.05199 126.967 7.18219C127.317 7.30649 127.689 7.41302 128.086 7.5018L129.719 7.89242C130.513 8.06998 131.241 8.30672 131.903 8.60265C132.566 8.89858 133.14 9.26257 133.626 9.69462C134.111 10.1267 134.487 10.6357 134.753 11.2216C135.025 11.8076 135.165 12.4793 135.17 13.2369C135.165 14.3496 134.88 15.3143 134.318 16.1311C133.762 16.9419 132.957 17.5722 131.903 18.022C130.856 18.4659 129.592 18.6879 128.113 18.6879C126.645 18.6879 125.366 18.463 124.277 18.0132C123.194 17.5634 122.348 16.8975 121.738 16.0156C121.135 15.1279 120.818 14.03 120.788 12.722H124.508C124.55 13.3316 124.724 13.8406 125.032 14.249C125.346 14.6514 125.763 14.9562 126.284 15.1634C126.811 15.3646 127.405 15.4652 128.068 15.4652C128.719 15.4652 129.284 15.3705 129.764 15.1811C130.249 14.9917 130.625 14.7284 130.891 14.391C131.158 14.0536 131.291 13.666 131.291 13.228C131.291 12.8196 131.17 12.4763 130.927 12.1982C130.69 11.92 130.341 11.6833 129.879 11.4879C129.424 11.2926 128.864 11.1151 128.201 10.9553L126.222 10.4581C124.689 10.0852 123.478 9.50227 122.591 8.70918C121.703 7.9161 121.262 6.8478 121.268 5.50428C121.262 4.40343 121.555 3.44166 122.147 2.61899C122.744 1.79631 123.564 1.15414 124.606 0.692493C125.648 0.230845 126.831 2.15173e-05 128.157 2.15173e-05C129.506 2.15173e-05 130.684 0.230845 131.69 0.692493C132.702 1.15414 133.49 1.79631 134.052 2.61899C134.614 3.44166 134.904 4.39455 134.922 5.47765H131.238ZM143.846 18.6968C142.467 18.6968 141.275 18.4038 140.269 17.8178C139.268 17.226 138.496 16.4033 137.951 15.3498C137.407 14.2904 137.135 13.0623 137.135 11.6655C137.135 10.2569 137.407 9.02583 137.951 7.97232C138.496 6.9129 139.268 6.09022 140.269 5.50428C141.275 4.91243 142.467 4.6165 143.846 4.6165C145.225 4.6165 146.415 4.91243 147.415 5.50428C148.421 6.09022 149.197 6.9129 149.741 7.97232C150.286 9.02583 150.558 10.2569 150.558 11.6655C150.558 13.0623 150.286 14.2904 149.741 15.3498C149.197 16.4033 148.421 17.226 147.415 17.8178C146.415 18.4038 145.225 18.6968 143.846 18.6968ZM143.864 15.7671C144.491 15.7671 145.015 15.5895 145.435 15.2344C145.856 14.8734 146.172 14.3821 146.385 13.7607C146.604 13.1392 146.714 12.432 146.714 11.6389C146.714 10.8458 146.604 10.1385 146.385 9.51707C146.172 8.89562 145.856 8.40438 145.435 8.04335C145.015 7.68231 144.491 7.5018 143.864 7.5018C143.231 7.5018 142.698 7.68231 142.266 8.04335C141.84 8.40438 141.517 8.89562 141.298 9.51707C141.085 10.1385 140.979 10.8458 140.979 11.6389C140.979 12.432 141.085 13.1392 141.298 13.7607C141.517 14.3821 141.84 14.8734 142.266 15.2344C142.698 15.5895 143.231 15.7671 143.864 15.7671ZM156.799 10.5469V18.4304H153.017V4.79406H156.622V7.19995H156.781C157.083 6.40686 157.589 5.7795 158.299 5.31785C159.01 4.85028 159.871 4.6165 160.883 4.6165C161.83 4.6165 162.656 4.82365 163.36 5.23795C164.064 5.65225 164.612 6.2441 165.002 7.01352C165.393 7.77701 165.588 8.68847 165.588 9.74789V18.4304H161.806V10.4226C161.812 9.58809 161.599 8.93705 161.167 8.46948C160.735 7.996 160.14 7.75926 159.383 7.75926C158.874 7.75926 158.424 7.86875 158.033 8.08773C157.648 8.30672 157.347 8.62632 157.128 9.04654C156.915 9.46084 156.805 9.96096 156.799 10.5469ZM174.712 23.8281C173.487 23.8281 172.437 23.6595 171.561 23.3221C170.691 22.9907 169.998 22.5379 169.483 21.9638C168.968 21.3897 168.634 20.7446 168.48 20.0284L171.978 19.5579C172.085 19.8302 172.253 20.0847 172.484 20.3214C172.715 20.5581 173.02 20.7475 173.398 20.8896C173.783 21.0375 174.251 21.1115 174.801 21.1115C175.624 21.1115 176.302 20.9103 176.834 20.5078C177.373 20.1113 177.642 19.4455 177.642 18.5103V16.0156H177.482C177.317 16.3944 177.068 16.7525 176.737 17.0899C176.405 17.4272 175.979 17.7024 175.458 17.9155C174.937 18.1286 174.316 18.2351 173.594 18.2351C172.57 18.2351 171.638 17.9984 170.797 17.5249C169.963 17.0455 169.297 16.3145 168.8 15.3321C168.309 14.3437 168.063 13.0948 168.063 11.5856C168.063 10.0409 168.314 8.75061 168.818 7.71487C169.321 6.67912 169.989 5.90379 170.824 5.38887C171.664 4.87396 172.585 4.6165 173.585 4.6165C174.348 4.6165 174.988 4.74671 175.503 5.00712C176.017 5.26162 176.432 5.58122 176.745 5.96593C177.065 6.34472 177.311 6.71759 177.482 7.08454H177.624V4.79406H181.38V18.5636C181.38 19.7236 181.096 20.6943 180.527 21.4755C179.959 22.2568 179.172 22.8427 178.166 23.2333C177.166 23.6299 176.014 23.8281 174.712 23.8281ZM174.792 15.3942C175.402 15.3942 175.917 15.2433 176.337 14.9414C176.763 14.6337 177.089 14.1957 177.314 13.6275C177.544 13.0534 177.66 12.3669 177.66 11.5678C177.66 10.7688 177.547 10.0764 177.322 9.49043C177.098 8.89858 176.772 8.43989 176.346 8.11437C175.92 7.78885 175.402 7.62609 174.792 7.62609C174.171 7.62609 173.647 7.79477 173.221 8.13212C172.795 8.46356 172.472 8.92521 172.253 9.51707C172.034 10.1089 171.925 10.7925 171.925 11.5678C171.925 12.355 172.034 13.0357 172.253 13.6098C172.478 14.1779 172.801 14.6189 173.221 14.9326C173.647 15.2403 174.171 15.3942 174.792 15.3942ZM-5.53727e-05 43.4304V28.1577H9.15762V29.7983H1.84938V34.9588H8.47154V36.5995H1.84938V43.4304H-5.53727e-05ZM12.0865 43.4304V31.9759H13.8464V43.4304H12.0865ZM12.9814 30.0668C12.6384 30.0668 12.3425 29.95 12.094 29.7163C11.8504 29.4826 11.7285 29.2017 11.7285 28.8736C11.7285 28.5455 11.8504 28.2646 12.094 28.0309C12.3425 27.7973 12.6384 27.6804 12.9814 27.6804C13.3244 27.6804 13.6178 27.7973 13.8614 28.0309C14.1099 28.2646 14.2342 28.5455 14.2342 28.8736C14.2342 29.2017 14.1099 29.4826 13.8614 29.7163C13.6178 29.95 13.3244 30.0668 12.9814 30.0668ZM17.0699 43.4304V31.9759H18.7702V33.706H18.8895C19.0983 33.1392 19.4762 32.6794 20.023 32.3264C20.5699 31.9734 21.1864 31.7969 21.8725 31.7969C22.0017 31.7969 22.1633 31.7994 22.3572 31.8044C22.5511 31.8093 22.6977 31.8168 22.7972 31.8267V33.6165C22.7375 33.6016 22.6008 33.5792 22.387 33.5494C22.1782 33.5146 21.957 33.4972 21.7233 33.4972C21.1665 33.4972 20.6693 33.614 20.2318 33.8477C19.7993 34.0764 19.4563 34.3946 19.2027 34.8022C18.9541 35.2049 18.8298 35.6648 18.8298 36.1818V43.4304H17.0699ZM32.997 34.5412L31.416 34.9887C31.3166 34.7252 31.17 34.4691 30.9761 34.2205C30.7871 33.967 30.5286 33.7582 30.2005 33.5941C29.8724 33.4301 29.4523 33.348 28.9402 33.348C28.2392 33.348 27.655 33.5096 27.1877 33.8328C26.7254 34.1509 26.4942 34.5561 26.4942 35.0483C26.4942 35.4858 26.6533 35.8313 26.9714 36.0849C27.2896 36.3384 27.7868 36.5497 28.4629 36.7188L30.1632 37.1364C31.1874 37.385 31.9505 37.7653 32.4526 38.2774C32.9548 38.7845 33.2058 39.4382 33.2058 40.2387C33.2058 40.8949 33.0169 41.4816 32.6391 41.9986C32.2662 42.5156 31.7442 42.9233 31.073 43.2216C30.4018 43.5199 29.6213 43.6691 28.7314 43.6691C27.5631 43.6691 26.5961 43.4155 25.8305 42.9084C25.0648 42.4013 24.5801 41.6605 24.3763 40.6861L26.0467 40.2685C26.2058 40.885 26.5066 41.3473 26.9491 41.6556C27.3965 41.9638 27.9807 42.1179 28.7016 42.1179C29.5219 42.1179 30.1732 41.9439 30.6554 41.5959C31.1426 41.2429 31.3862 40.8203 31.3862 40.3281C31.3862 39.9304 31.247 39.5973 30.9686 39.3289C30.6902 39.0554 30.2626 38.8516 29.6859 38.7174L27.7768 38.2699C26.7278 38.0213 25.9572 37.636 25.4651 37.114C24.9778 36.587 24.7342 35.9283 24.7342 35.1378C24.7342 34.4915 24.9157 33.9198 25.2786 33.4226C25.6465 32.9254 26.1462 32.5352 26.7776 32.2518C27.4139 31.9684 28.1348 31.8267 28.9402 31.8267C30.0737 31.8267 30.9636 32.0753 31.6099 32.5725C32.2612 33.0696 32.7236 33.7259 32.997 34.5412ZM40.8366 31.9759V33.4674H34.9005V31.9759H40.8366ZM36.6306 29.2316H38.3906V40.1492C38.3906 40.6463 38.4627 41.0192 38.6068 41.2678C38.756 41.5114 38.9449 41.6754 39.1736 41.76C39.4073 41.8395 39.6534 41.8793 39.9119 41.8793C40.1058 41.8793 40.2649 41.8693 40.3891 41.8495C40.5134 41.8246 40.6129 41.8047 40.6874 41.7898L41.0454 43.3708C40.9261 43.4155 40.7595 43.4602 40.5458 43.505C40.332 43.5547 40.061 43.5796 39.7329 43.5796C39.2357 43.5796 38.7485 43.4727 38.2713 43.2589C37.799 43.0451 37.4062 42.7195 37.093 42.282C36.7847 41.8445 36.6306 41.2926 36.6306 40.6264V29.2316ZM49.6363 36.0625V37.7031H42.9545V36.0625H49.6363ZM49.998 28.1577H52.1159L56.3517 35.287H56.5307L60.7665 28.1577H62.8844L57.3659 37.1364V43.4304H55.5165V37.1364L49.998 28.1577ZM68.2201 43.6691C67.1164 43.6691 66.1644 43.4254 65.3639 42.9382C64.5685 42.446 63.9545 41.76 63.522 40.88C63.0944 39.9951 62.8806 38.9659 62.8806 37.7926C62.8806 36.6193 63.0944 35.5852 63.522 34.6904C63.9545 33.7905 64.5561 33.0895 65.3266 32.5874C66.1022 32.0803 67.007 31.8267 68.0411 31.8267C68.6377 31.8267 69.2269 31.9262 69.8085 32.125C70.3902 32.3239 70.9197 32.647 71.397 33.0945C71.8742 33.537 72.2546 34.1236 72.5379 34.8544C72.8213 35.5852 72.963 36.4851 72.963 37.554V38.2997H64.1335V36.7784H71.1732C71.1732 36.1321 71.044 35.5554 70.7855 35.0483C70.5319 34.5412 70.169 34.141 69.6967 33.8477C69.2293 33.5544 68.6775 33.4077 68.0411 33.4077C67.3401 33.4077 66.7336 33.5817 66.2215 33.9297C65.7144 34.2727 65.3242 34.7202 65.0507 35.272C64.7773 35.8239 64.6406 36.4155 64.6406 37.0469V38.0611C64.6406 38.9262 64.7897 39.6595 65.088 40.261C65.3913 40.8576 65.8114 41.3125 66.3483 41.6257C66.8852 41.934 67.5092 42.0881 68.2201 42.0881C68.6825 42.0881 69.1001 42.0235 69.473 41.8942C69.8508 41.76 70.1764 41.5611 70.4499 41.2976C70.7233 41.0291 70.9346 40.696 71.0838 40.2983L72.784 40.7756C72.6051 41.3523 72.3043 41.8594 71.8817 42.2969C71.4591 42.7294 70.9371 43.0675 70.3156 43.3111C69.6942 43.5497 68.9957 43.6691 68.2201 43.6691ZM79.011 43.6989C78.2851 43.6989 77.6264 43.5622 77.0347 43.2887C76.4431 43.0103 75.9733 42.6101 75.6253 42.0881C75.2773 41.5611 75.1033 40.9247 75.1033 40.179C75.1033 39.5227 75.2325 38.9908 75.4911 38.5831C75.7496 38.1705 76.0951 37.8473 76.5276 37.6137C76.9602 37.38 77.4374 37.206 77.9595 37.0916C78.4865 36.9723 79.0159 36.8779 79.5479 36.8083C80.2439 36.7188 80.8082 36.6517 81.2407 36.6069C81.6782 36.5572 81.9964 36.4752 82.1953 36.3608C82.3991 36.2465 82.501 36.0476 82.501 35.7642V35.7046C82.501 34.9688 82.2997 34.397 81.897 33.9894C81.4992 33.5817 80.8952 33.3779 80.0848 33.3779C79.2446 33.3779 78.5859 33.5618 78.1086 33.9297C77.6313 34.2976 77.2958 34.6904 77.1019 35.108L75.4314 34.5114C75.7297 33.8154 76.1274 33.2735 76.6246 32.8857C77.1267 32.4929 77.6736 32.2195 78.2652 32.0654C78.8618 31.9063 79.4485 31.8267 80.0252 31.8267C80.3931 31.8267 80.8156 31.8715 81.2929 31.961C81.7752 32.0455 82.24 32.222 82.6874 32.4904C83.1399 32.7589 83.5152 33.1641 83.8135 33.706C84.1118 34.2479 84.261 34.9737 84.261 35.8835V43.4304H82.501V41.8793H82.4115C82.2922 42.1279 82.0933 42.3938 81.8149 42.6772C81.5365 42.9606 81.1661 43.2017 80.7038 43.4006C80.2414 43.5995 79.6771 43.6989 79.011 43.6989ZM79.2794 42.1179C79.9754 42.1179 80.5621 41.9812 81.0394 41.7078C81.5216 41.4343 81.8845 41.0813 82.1281 40.6488C82.3767 40.2163 82.501 39.7614 82.501 39.2841V37.6733C82.4264 37.7628 82.2624 37.8448 82.0088 37.9194C81.7602 37.989 81.4719 38.0512 81.1438 38.1058C80.8206 38.1556 80.5049 38.2003 80.1967 38.2401C79.8934 38.2749 79.6473 38.3047 79.4584 38.3296C79.001 38.3892 78.5735 38.4862 78.1757 38.6204C77.783 38.7497 77.4648 38.946 77.2212 39.2095C76.9825 39.4681 76.8632 39.821 76.8632 40.2685C76.8632 40.88 77.0894 41.3424 77.5418 41.6556C77.9992 41.9638 78.5784 42.1179 79.2794 42.1179ZM87.4732 43.4304V31.9759H89.1735V33.706H89.2928C89.5016 33.1392 89.8795 32.6794 90.4263 32.3264C90.9732 31.9734 91.5897 31.7969 92.2758 31.7969C92.405 31.7969 92.5666 31.7994 92.7605 31.8044C92.9544 31.8093 93.1011 31.8168 93.2005 31.8267V33.6165C93.1408 33.6016 93.0041 33.5792 92.7903 33.5494C92.5815 33.5146 92.3603 33.4972 92.1266 33.4972C91.5698 33.4972 91.0727 33.614 90.6352 33.8477C90.2026 34.0764 89.8596 34.3946 89.606 34.8022C89.3575 35.2049 89.2332 35.6648 89.2332 36.1818V43.4304H87.4732ZM109.993 45.2202C108.471 45.2202 107.127 45.0114 105.958 44.5938C104.79 44.1811 103.808 43.5721 103.013 42.7667C102.217 41.9613 101.616 40.9745 101.208 39.8061C100.8 38.6378 100.596 37.3004 100.596 35.7941C100.596 34.3374 100.803 33.0348 101.215 31.8864C101.633 30.7379 102.237 29.7635 103.027 28.9631C103.823 28.1577 104.787 27.5437 105.921 27.1211C107.059 26.6985 108.347 26.4872 109.784 26.4872C111.181 26.4872 112.404 26.7159 113.453 27.1733C114.507 27.6257 115.387 28.2397 116.093 29.0153C116.804 29.7859 117.336 30.6534 117.689 31.6179C118.047 32.5824 118.226 33.5767 118.226 34.6009C118.226 35.3218 118.191 36.0526 118.121 36.7933C118.052 37.5341 117.905 38.2152 117.681 38.8367C117.458 39.4531 117.112 39.9503 116.645 40.3281C116.182 40.706 115.556 40.8949 114.765 40.8949C114.417 40.8949 114.035 40.8402 113.617 40.7308C113.199 40.6215 112.829 40.44 112.506 40.1865C112.183 39.9329 111.991 39.5924 111.932 39.1648H111.842C111.723 39.4531 111.539 39.7266 111.29 39.9851C111.047 40.2436 110.726 40.45 110.328 40.6041C109.935 40.7582 109.456 40.8253 108.889 40.8054C108.243 40.7806 107.673 40.6364 107.181 40.3729C106.689 40.1044 106.276 39.7415 105.943 39.2841C105.615 38.8218 105.367 38.2873 105.198 37.6808C105.034 37.0693 104.951 36.4105 104.951 35.7046C104.951 35.0334 105.051 34.4194 105.25 33.8626C105.449 33.3058 105.725 32.8186 106.078 32.4009C106.435 31.9833 106.853 31.6502 107.33 31.4017C107.813 31.1481 108.332 30.9915 108.889 30.9318C109.386 30.8821 109.839 30.9045 110.246 30.999C110.654 31.0884 110.989 31.2252 111.253 31.4091C111.516 31.5881 111.683 31.787 111.753 32.0057H111.842V31.1705H113.423V37.912C113.423 38.3296 113.54 38.6975 113.774 39.0156C114.007 39.3338 114.348 39.4929 114.795 39.4929C115.302 39.4929 115.69 39.3189 115.959 38.9709C116.232 38.6229 116.418 38.086 116.518 37.3601C116.622 36.6343 116.674 35.7046 116.674 34.571C116.674 33.9049 116.583 33.2486 116.399 32.6023C116.22 31.951 115.946 31.342 115.578 30.7752C115.215 30.2085 114.755 29.7088 114.199 29.2763C113.642 28.8438 112.988 28.5057 112.237 28.2621C111.492 28.0135 110.644 27.8892 109.694 27.8892C108.526 27.8892 107.48 28.0707 106.555 28.4336C105.635 28.7916 104.852 29.3161 104.206 30.0071C103.564 30.6932 103.075 31.5284 102.737 32.5128C102.404 33.4922 102.237 34.6058 102.237 35.8537C102.237 37.1215 102.404 38.2475 102.737 39.2319C103.075 40.2163 103.572 41.0465 104.228 41.7227C104.889 42.3988 105.707 42.9134 106.682 43.2664C107.656 43.6144 108.78 43.7884 110.052 43.7884C110.599 43.7884 111.139 43.7362 111.671 43.6318C112.203 43.5274 112.672 43.413 113.08 43.2887C113.488 43.1644 113.781 43.0725 113.96 43.0128L114.378 44.385C114.069 44.5142 113.667 44.6435 113.17 44.7727C112.677 44.902 112.15 45.0089 111.589 45.0934C111.032 45.1779 110.5 45.2202 109.993 45.2202ZM109.128 39.2841C109.794 39.2841 110.333 39.1499 110.746 38.8814C111.159 38.6129 111.459 38.2078 111.648 37.6659C111.837 37.124 111.932 36.4404 111.932 35.6151C111.932 34.7799 111.827 34.1286 111.618 33.6612C111.41 33.1939 111.101 32.8658 110.694 32.6769C110.286 32.4879 109.784 32.3935 109.187 32.3935C108.621 32.3935 108.136 32.5426 107.733 32.8409C107.335 33.1343 107.03 33.527 106.816 34.0192C106.607 34.5064 106.503 35.0384 106.503 35.6151C106.503 36.2514 106.587 36.8505 106.756 37.4123C106.925 37.9691 107.201 38.4215 107.584 38.7696C107.967 39.1126 108.481 39.2841 109.128 39.2841ZM127.005 43.4304V28.1577H128.854V34.9588H136.998V28.1577H138.847V43.4304H136.998V36.5995H128.854V43.4304H127.005ZM145.682 43.6989C144.956 43.6989 144.297 43.5622 143.706 43.2887C143.114 43.0103 142.644 42.6101 142.296 42.0881C141.948 41.5611 141.774 40.9247 141.774 40.179C141.774 39.5227 141.903 38.9908 142.162 38.5831C142.42 38.1705 142.766 37.8473 143.199 37.6137C143.631 37.38 144.108 37.206 144.63 37.0916C145.157 36.9723 145.687 36.8779 146.219 36.8083C146.915 36.7188 147.479 36.6517 147.912 36.6069C148.349 36.5572 148.667 36.4752 148.866 36.3608C149.07 36.2465 149.172 36.0476 149.172 35.7642V35.7046C149.172 34.9688 148.971 34.397 148.568 33.9894C148.17 33.5817 147.566 33.3779 146.756 33.3779C145.916 33.3779 145.257 33.5618 144.78 33.9297C144.302 34.2976 143.967 34.6904 143.773 35.108L142.102 34.5114C142.401 33.8154 142.798 33.2735 143.295 32.8857C143.798 32.4929 144.344 32.2195 144.936 32.0654C145.533 31.9063 146.119 31.8267 146.696 31.8267C147.064 31.8267 147.487 31.8715 147.964 31.961C148.446 32.0455 148.911 32.222 149.358 32.4904C149.811 32.7589 150.186 33.1641 150.484 33.706C150.783 34.2479 150.932 34.9737 150.932 35.8835V43.4304H149.172V41.8793H149.082C148.963 42.1279 148.764 42.3938 148.486 42.6772C148.207 42.9606 147.837 43.2017 147.375 43.4006C146.912 43.5995 146.348 43.6989 145.682 43.6989ZM145.95 42.1179C146.646 42.1179 147.233 41.9812 147.71 41.7078C148.193 41.4343 148.555 41.0813 148.799 40.6488C149.048 40.2163 149.172 39.7614 149.172 39.2841V37.6733C149.097 37.7628 148.933 37.8448 148.68 37.9194C148.431 37.989 148.143 38.0512 147.815 38.1058C147.492 38.1556 147.176 38.2003 146.868 38.2401C146.564 38.2749 146.318 38.3047 146.129 38.3296C145.672 38.3892 145.244 38.4862 144.847 38.6204C144.454 38.7497 144.136 38.946 143.892 39.2095C143.653 39.4681 143.534 39.821 143.534 40.2685C143.534 40.88 143.76 41.3424 144.213 41.6556C144.67 41.9638 145.249 42.1179 145.95 42.1179ZM154.144 43.4304V31.9759H155.844V33.706H155.964C156.173 33.1392 156.55 32.6794 157.097 32.3264C157.644 31.9734 158.261 31.7969 158.947 31.7969C159.076 31.7969 159.238 31.7994 159.431 31.8044C159.625 31.8093 159.772 31.8168 159.871 31.8267V33.6165C159.812 33.6016 159.675 33.5792 159.461 33.5494C159.252 33.5146 159.031 33.4972 158.798 33.4972C158.241 33.4972 157.744 33.614 157.306 33.8477C156.874 34.0764 156.53 34.3946 156.277 34.8022C156.028 35.2049 155.904 35.6648 155.904 36.1818V43.4304H154.144ZM171.673 31.9759L167.437 43.4304H165.647L161.411 31.9759H163.32L166.482 41.1037H166.602L169.764 31.9759H171.673ZM177.018 43.6989C176.292 43.6989 175.633 43.5622 175.042 43.2887C174.45 43.0103 173.98 42.6101 173.632 42.0881C173.284 41.5611 173.11 40.9247 173.11 40.179C173.11 39.5227 173.239 38.9908 173.498 38.5831C173.756 38.1705 174.102 37.8473 174.534 37.6137C174.967 37.38 175.444 37.206 175.966 37.0916C176.493 36.9723 177.023 36.8779 177.555 36.8083C178.251 36.7188 178.815 36.6517 179.248 36.6069C179.685 36.5572 180.003 36.4752 180.202 36.3608C180.406 36.2465 180.508 36.0476 180.508 35.7642V35.7046C180.508 34.9688 180.306 34.397 179.904 33.9894C179.506 33.5817 178.902 33.3779 178.092 33.3779C177.251 33.3779 176.593 33.5618 176.115 33.9297C175.638 34.2976 175.303 34.6904 175.109 35.108L173.438 34.5114C173.737 33.8154 174.134 33.2735 174.631 32.8857C175.134 32.4929 175.68 32.2195 176.272 32.0654C176.869 31.9063 177.455 31.8267 178.032 31.8267C178.4 31.8267 178.822 31.8715 179.3 31.961C179.782 32.0455 180.247 32.222 180.694 32.4904C181.147 32.7589 181.522 33.1641 181.82 33.706C182.119 34.2479 182.268 34.9737 182.268 35.8835V43.4304H180.508V41.8793H180.418C180.299 42.1279 180.1 42.3938 179.822 42.6772C179.543 42.9606 179.173 43.2017 178.711 43.4006C178.248 43.5995 177.684 43.6989 177.018 43.6989ZM177.286 42.1179C177.982 42.1179 178.569 41.9812 179.046 41.7078C179.528 41.4343 179.891 41.0813 180.135 40.6488C180.384 40.2163 180.508 39.7614 180.508 39.2841V37.6733C180.433 37.7628 180.269 37.8448 180.016 37.9194C179.767 37.989 179.479 38.0512 179.151 38.1058C178.827 38.1556 178.512 38.2003 178.204 38.2401C177.9 38.2749 177.654 38.3047 177.465 38.3296C177.008 38.3892 176.58 38.4862 176.183 38.6204C175.79 38.7497 175.472 38.946 175.228 39.2095C174.989 39.4681 174.87 39.821 174.87 40.2685C174.87 40.88 175.096 41.3424 175.549 41.6556C176.006 41.9638 176.585 42.1179 177.286 42.1179ZM185.48 43.4304V31.9759H187.18V33.706H187.3C187.508 33.1392 187.886 32.6794 188.433 32.3264C188.98 31.9734 189.597 31.7969 190.283 31.7969C190.412 31.7969 190.573 31.7994 190.767 31.8044C190.961 31.8093 191.108 31.8168 191.207 31.8267V33.6165C191.148 33.6016 191.011 33.5792 190.797 33.5494C190.588 33.5146 190.367 33.4972 190.133 33.4972C189.577 33.4972 189.079 33.614 188.642 33.8477C188.209 34.0764 187.866 34.3946 187.613 34.8022C187.364 35.2049 187.24 35.6648 187.24 36.1818V43.4304H185.48ZM197.27 43.6691C196.316 43.6691 195.473 43.4279 194.742 42.9457C194.011 42.4585 193.44 41.7724 193.027 40.8875C192.614 39.9975 192.408 38.946 192.408 37.733C192.408 36.5299 192.614 35.4858 193.027 34.6009C193.44 33.7159 194.014 33.0323 194.75 32.5501C195.485 32.0678 196.336 31.8267 197.3 31.8267C198.046 31.8267 198.635 31.951 199.067 32.1996C199.505 32.4432 199.838 32.7216 200.067 33.0348C200.3 33.3431 200.482 33.5966 200.611 33.7955H200.76V28.1577H202.52V43.4304H200.82V41.6705H200.611C200.482 41.8793 200.298 42.1428 200.059 42.461C199.821 42.7742 199.48 43.0551 199.038 43.3036C198.595 43.5473 198.006 43.6691 197.27 43.6691ZM197.509 42.0881C198.215 42.0881 198.811 41.9041 199.299 41.5362C199.786 41.1634 200.156 40.6488 200.41 39.9926C200.663 39.3313 200.79 38.5682 200.79 37.7031C200.79 36.848 200.666 36.0998 200.417 35.4585C200.169 34.8122 199.801 34.31 199.314 33.9521C198.826 33.5892 198.225 33.4077 197.509 33.4077C196.763 33.4077 196.142 33.5991 195.644 33.9819C195.152 34.3598 194.782 34.8743 194.533 35.5256C194.29 36.1719 194.168 36.8977 194.168 37.7031C194.168 38.5185 194.292 39.2593 194.541 39.9254C194.794 40.5867 195.167 41.1137 195.659 41.5064C196.157 41.8942 196.773 42.0881 197.509 42.0881ZM13.5248 59.5412L11.9439 59.9887C11.8444 59.7252 11.6978 59.4691 11.5039 59.2205C11.315 58.967 11.0565 58.7582 10.7283 58.5941C10.4002 58.4301 9.9801 58.348 9.46803 58.348C8.76703 58.348 8.18287 58.5096 7.71554 58.8328C7.25319 59.1509 7.02201 59.5561 7.02201 60.0483C7.02201 60.4858 7.1811 60.8313 7.49928 61.0849C7.81746 61.3384 8.31462 61.5497 8.99076 61.7188L10.691 62.1364C11.7152 62.385 12.4783 62.7653 12.9805 63.2774C13.4826 63.7845 13.7337 64.4382 13.7337 65.2387C13.7337 65.8949 13.5447 66.4816 13.1669 66.9986C12.794 67.5156 12.272 67.9233 11.6008 68.2216C10.9297 68.5199 10.1491 68.6691 9.25922 68.6691C8.0909 68.6691 7.12392 68.4155 6.3583 67.9084C5.59267 67.4013 5.10794 66.6605 4.90411 65.6861L6.57456 65.2685C6.73365 65.885 7.03443 66.3473 7.47691 66.6556C7.92435 66.9638 8.50851 67.1179 9.22939 67.1179C10.0497 67.1179 10.701 66.9439 11.1832 66.5959C11.6704 66.2429 11.9141 65.8203 11.9141 65.3281C11.9141 64.9304 11.7748 64.5973 11.4964 64.3289C11.218 64.0554 10.7905 63.8516 10.2138 63.7174L8.30468 63.2699C7.25567 63.0213 6.48507 62.636 5.99289 62.114C5.50567 61.587 5.26206 60.9283 5.26206 60.1378C5.26206 59.4915 5.44353 58.9198 5.80645 58.4226C6.17435 57.9254 6.67399 57.5352 7.30539 57.2518C7.94175 56.9684 8.66263 56.8267 9.46803 56.8267C10.6016 56.8267 11.4915 57.0753 12.1378 57.5725C12.7891 58.0696 13.2514 58.7259 13.5248 59.5412ZM21.3644 56.9759V58.4674H15.4283V56.9759H21.3644ZM17.1585 54.2316H18.9184V65.1492C18.9184 65.6463 18.9905 66.0192 19.1347 66.2678C19.2838 66.5114 19.4727 66.6754 19.7014 66.76C19.9351 66.8395 20.1812 66.8793 20.4397 66.8793C20.6336 66.8793 20.7927 66.8693 20.917 66.8495C21.0413 66.8246 21.1407 66.8047 21.2153 66.7898L21.5732 68.3708C21.4539 68.4155 21.2874 68.4602 21.0736 68.505C20.8598 68.5547 20.5889 68.5796 20.2607 68.5796C19.7636 68.5796 19.2764 68.4727 18.7991 68.2589C18.3268 68.0451 17.934 67.7195 17.6208 67.282C17.3126 66.8445 17.1585 66.2926 17.1585 65.6264V54.2316ZM31.2305 63.7472V56.9759H32.9905V68.4304H31.2305V66.4915H31.1112C30.8428 67.0732 30.4251 67.5678 29.8584 67.9755C29.2916 68.3782 28.5757 68.5796 27.7107 68.5796C26.9948 68.5796 26.3584 68.423 25.8016 68.1098C25.2448 67.7916 24.8073 67.3143 24.4891 66.6779C24.1709 66.0366 24.0118 65.2287 24.0118 64.2543V56.9759H25.7717V64.135C25.7717 64.9702 26.0054 65.6364 26.4727 66.1335C26.945 66.6307 27.5466 66.8793 28.2774 66.8793C28.7149 66.8793 29.1599 66.7674 29.6123 66.5437C30.0697 66.32 30.4525 65.9769 30.7607 65.5146C31.0739 65.0522 31.2305 64.4631 31.2305 63.7472ZM40.5392 68.6691C39.5847 68.6691 38.742 68.4279 38.0112 67.9457C37.2804 67.4585 36.7086 66.7724 36.296 65.8875C35.8833 64.9975 35.677 63.946 35.677 62.733C35.677 61.5299 35.8833 60.4858 36.296 59.6009C36.7086 58.7159 37.2828 58.0323 38.0186 57.5501C38.7544 57.0678 39.6046 56.8267 40.5691 56.8267C41.3148 56.8267 41.9039 56.951 42.3365 57.1996C42.774 57.4432 43.1071 57.7216 43.3357 58.0348C43.5694 58.3431 43.7509 58.5966 43.8801 58.7955H44.0293V53.1577H45.7892V68.4304H44.0889V66.6705H43.8801C43.7509 66.8793 43.5669 67.1428 43.3283 67.461C43.0897 67.7742 42.7491 68.0551 42.3066 68.3036C41.8642 68.5473 41.275 68.6691 40.5392 68.6691ZM40.7779 67.0881C41.4838 67.0881 42.0804 66.9041 42.5676 66.5362C43.0549 66.1634 43.4252 65.6488 43.6788 64.9926C43.9323 64.3313 44.0591 63.5682 44.0591 62.7031C44.0591 61.848 43.9348 61.0998 43.6862 60.4585C43.4377 59.8122 43.0698 59.31 42.5826 58.9521C42.0953 58.5892 41.4938 58.4077 40.7779 58.4077C40.0321 58.4077 39.4107 58.5991 38.9135 58.9819C38.4213 59.3598 38.0509 59.8743 37.8024 60.5256C37.5588 61.1719 37.437 61.8977 37.437 62.7031C37.437 63.5185 37.5612 64.2593 37.8098 64.9254C38.0634 65.5867 38.4362 66.1137 38.9284 66.5064C39.4256 66.8942 40.0421 67.0881 40.7779 67.0881ZM50.3904 72.7259C50.0921 72.7259 49.8262 72.701 49.5925 72.6513C49.3588 72.6066 49.1973 72.5618 49.1078 72.5171L49.5552 70.9659C49.9828 71.0753 50.3606 71.1151 50.6887 71.0852C51.0169 71.0554 51.3077 70.9088 51.5612 70.6453C51.8198 70.3867 52.0559 69.9666 52.2697 69.385L52.5978 68.4901L48.362 56.9759H50.2711L53.4331 66.1037H53.5524L56.7143 56.9759H58.6234L53.7612 70.1009C53.5424 70.6925 53.2715 71.1822 52.9483 71.57C52.6252 71.9627 52.2498 72.2536 51.8223 72.4425C51.3997 72.6314 50.9224 72.7259 50.3904 72.7259ZM60.9464 68.4304V56.9759H62.7063V68.4304H60.9464ZM61.8413 55.0668C61.4982 55.0668 61.2024 54.95 60.9538 54.7163C60.7102 54.4826 60.5884 54.2017 60.5884 53.8736C60.5884 53.5455 60.7102 53.2646 60.9538 53.0309C61.2024 52.7973 61.4982 52.6804 61.8413 52.6804C62.1843 52.6804 62.4776 52.7973 62.7212 53.0309C62.9698 53.2646 63.0941 53.5455 63.0941 53.8736C63.0941 54.2017 62.9698 54.4826 62.7212 54.7163C62.4776 54.95 62.1843 55.0668 61.8413 55.0668ZM67.6897 61.5398V68.4304H65.9298V56.9759H67.63V58.7656H67.7792C68.0477 58.184 68.4553 57.7166 69.0022 57.3637C69.5491 57.0057 70.255 56.8267 71.1201 56.8267C71.8957 56.8267 72.5743 56.9858 73.156 57.304C73.7376 57.6172 74.1901 58.0945 74.5132 58.7358C74.8364 59.3722 74.9979 60.1776 74.9979 61.152V68.4304H73.238V61.2713C73.238 60.3715 73.0043 59.6705 72.537 59.1683C72.0697 58.6612 71.4283 58.4077 70.613 58.4077C70.0512 58.4077 69.5491 58.5295 69.1066 58.7731C68.6691 59.0167 68.3236 59.3722 68.07 59.8395C67.8165 60.3068 67.6897 60.8736 67.6897 61.5398ZM82.8375 72.9645C81.9874 72.9645 81.2566 72.8551 80.6451 72.6364C80.0335 72.4226 79.524 72.1392 79.1163 71.7862C78.7136 71.4382 78.3929 71.0654 78.1543 70.6676L79.5563 69.6833C79.7154 69.8921 79.9167 70.1307 80.1603 70.3992C80.4039 70.6726 80.737 70.9088 81.1596 71.1076C81.5872 71.3115 82.1465 71.4134 82.8375 71.4134C83.7622 71.4134 84.5254 71.1897 85.1269 70.7422C85.7285 70.2948 86.0293 69.5938 86.0293 68.6392V66.3125H85.8801C85.7509 66.5213 85.5669 66.7799 85.3283 67.0881C85.0946 67.3914 84.7566 67.6623 84.3141 67.9009C83.8766 68.1346 83.285 68.2514 82.5392 68.2514C81.6145 68.2514 80.7843 68.0327 80.0485 67.5952C79.3176 67.1577 78.7384 66.5213 78.3109 65.6861C77.8883 64.8509 77.677 63.8367 77.677 62.6435C77.677 61.4702 77.8833 60.4485 78.296 59.5785C78.7086 58.7035 79.2828 58.0274 80.0186 57.5501C80.7544 57.0678 81.6046 56.8267 82.5691 56.8267C83.3148 56.8267 83.9064 56.951 84.3439 57.1996C84.7864 57.4432 85.1245 57.7216 85.3581 58.0348C85.5968 58.3431 85.7807 58.5966 85.91 58.7955H86.0889V56.9759H87.7892V68.7585C87.7892 69.7429 87.5655 70.5433 87.1181 71.1598C86.6756 71.7813 86.079 72.2362 85.3283 72.5245C84.5826 72.8178 83.7523 72.9645 82.8375 72.9645ZM82.7779 66.6705C83.4838 66.6705 84.0804 66.5089 84.5676 66.1857C85.0549 65.8626 85.4252 65.3977 85.6788 64.7912C85.9323 64.1847 86.0591 63.4588 86.0591 62.6137C86.0591 61.7884 85.9348 61.06 85.6862 60.4286C85.4377 59.7973 85.0698 59.3026 84.5826 58.9446C84.0953 58.5867 83.4938 58.4077 82.7779 58.4077C82.0321 58.4077 81.4107 58.5966 80.9135 58.9745C80.4213 59.3523 80.0509 59.8594 79.8024 60.4958C79.5588 61.1321 79.437 61.8381 79.437 62.6137C79.437 63.4091 79.5612 64.1126 79.8098 64.7241C80.0634 65.3306 80.4362 65.8079 80.9284 66.1559C81.4256 66.499 82.0421 66.6705 82.7779 66.6705ZM109.445 57.9304H107.596C107.487 57.3985 107.295 56.9311 107.022 56.5284C106.753 56.1257 106.425 55.7877 106.037 55.5142C105.655 55.2358 105.23 55.027 104.762 54.8878C104.295 54.7486 103.808 54.679 103.301 54.679C102.376 54.679 101.538 54.9127 100.787 55.38C100.042 55.8473 99.4476 56.5359 99.0051 57.4457C98.5676 58.3555 98.3489 59.4716 98.3489 60.7941C98.3489 62.1165 98.5676 63.2326 99.0051 64.1424C99.4476 65.0522 100.042 65.7408 100.787 66.2081C101.538 66.6754 102.376 66.9091 103.301 66.9091C103.808 66.9091 104.295 66.8395 104.762 66.7003C105.23 66.5611 105.655 66.3548 106.037 66.0813C106.425 65.8029 106.753 65.4624 107.022 65.0597C107.295 64.652 107.487 64.1847 107.596 63.6577H109.445C109.306 64.4382 109.053 65.1367 108.685 65.7532C108.317 66.3697 107.86 66.8942 107.313 67.3267C106.766 67.7543 106.152 68.0799 105.471 68.3036C104.795 68.5274 104.071 68.6392 103.301 68.6392C101.998 68.6392 100.84 68.321 99.8255 67.6847C98.8112 67.0483 98.0133 66.1435 97.4316 64.9702C96.85 63.7969 96.5591 62.4049 96.5591 60.7941C96.5591 59.1833 96.85 57.7912 97.4316 56.6179C98.0133 55.4446 98.8112 54.5398 99.8255 53.9034C100.84 53.2671 101.998 52.9489 103.301 52.9489C104.071 52.9489 104.795 53.0607 105.471 53.2845C106.152 53.5082 106.766 53.8363 107.313 54.2688C107.86 54.6964 108.317 55.2184 108.685 55.8349C109.053 56.4464 109.306 57.1449 109.445 57.9304ZM120.786 56.9759C120.697 56.2202 120.334 55.6335 119.698 55.2159C119.061 54.7983 118.281 54.5895 117.356 54.5895C116.68 54.5895 116.088 54.6989 115.581 54.9176C115.079 55.1364 114.686 55.4372 114.403 55.82C114.124 56.2028 113.985 56.6378 113.985 57.125C113.985 57.5327 114.082 57.8832 114.276 58.1765C114.475 58.4649 114.728 58.706 115.037 58.8999C115.345 59.0888 115.668 59.2454 116.006 59.3697C116.344 59.489 116.655 59.586 116.938 59.6605L118.489 60.0781C118.887 60.1826 119.33 60.3267 119.817 60.5107C120.309 60.6946 120.779 60.9457 121.226 61.2639C121.679 61.5771 122.052 61.9798 122.345 62.472C122.638 62.9642 122.785 63.5682 122.785 64.2841C122.785 65.1094 122.569 65.8551 122.136 66.5213C121.709 67.1875 121.082 67.717 120.257 68.1098C119.437 68.5025 118.44 68.6989 117.266 68.6989C116.173 68.6989 115.226 68.5224 114.425 68.1694C113.63 67.8164 113.003 67.3242 112.546 66.6928C112.093 66.0615 111.837 65.3281 111.778 64.4929H113.687C113.737 65.0696 113.93 65.5469 114.269 65.9247C114.612 66.2976 115.044 66.576 115.566 66.76C116.093 66.9389 116.66 67.0284 117.266 67.0284C117.972 67.0284 118.606 66.9141 119.168 66.6854C119.73 66.4517 120.175 66.1286 120.503 65.7159C120.831 65.2983 120.995 64.8111 120.995 64.2543C120.995 63.7472 120.853 63.3345 120.57 63.0164C120.287 62.6982 119.914 62.4397 119.451 62.2408C118.989 62.0419 118.489 61.8679 117.952 61.7188L116.073 61.1818C114.88 60.8388 113.935 60.3491 113.239 59.7127C112.543 59.0764 112.195 58.2436 112.195 57.2145C112.195 56.3594 112.427 55.6137 112.889 54.9773C113.356 54.336 113.983 53.8388 114.768 53.4858C115.559 53.1279 116.441 52.9489 117.416 52.9489C118.4 52.9489 119.275 53.1254 120.041 53.4784C120.806 53.8264 121.413 54.3036 121.86 54.9102C122.313 55.5167 122.551 56.2053 122.576 56.9759H120.786ZM135.968 65.7458V55.902H137.638V65.7458H135.968ZM131.881 61.6591V59.9887H141.725V61.6591H131.881ZM151.481 68.4304V53.1577H160.698V54.7983H153.33V59.9588H160.221V61.5995H153.33V66.7898H160.818V68.4304H151.481ZM168.446 68.6691C167.373 68.6691 166.448 68.4155 165.672 67.9084C164.897 67.4013 164.3 66.7028 163.883 65.8129C163.465 64.923 163.256 63.9063 163.256 62.7628C163.256 61.5995 163.47 60.5728 163.897 59.6829C164.33 58.788 164.932 58.0895 165.702 57.5874C166.478 57.0803 167.383 56.8267 168.417 56.8267C169.222 56.8267 169.948 56.9759 170.594 57.2742C171.24 57.5725 171.77 57.9901 172.183 58.527C172.595 59.0639 172.851 59.6904 172.951 60.4063H171.191C171.057 59.8843 170.758 59.4219 170.296 59.0192C169.839 58.6115 169.222 58.4077 168.446 58.4077C167.76 58.4077 167.159 58.5867 166.642 58.9446C166.13 59.2976 165.729 59.7973 165.441 60.4436C165.158 61.0849 165.016 61.8381 165.016 62.7031C165.016 63.5881 165.155 64.3587 165.434 65.0149C165.717 65.6712 166.115 66.1808 166.627 66.5437C167.144 66.9066 167.75 67.0881 168.446 67.0881C168.904 67.0881 169.319 67.0085 169.692 66.8495C170.065 66.6904 170.38 66.4617 170.639 66.1634C170.897 65.8651 171.081 65.5071 171.191 65.0895H172.951C172.851 65.7656 172.605 66.3747 172.212 66.9166C171.825 67.4535 171.31 67.8811 170.669 68.1992C170.032 68.5125 169.292 68.6691 168.446 68.6691ZM180.177 68.6691C179.143 68.6691 178.236 68.423 177.455 67.9308C176.679 67.4386 176.073 66.75 175.635 65.8651C175.203 64.9801 174.987 63.946 174.987 62.7628C174.987 61.5696 175.203 60.5281 175.635 59.6382C176.073 58.7482 176.679 58.0572 177.455 57.565C178.236 57.0728 179.143 56.8267 180.177 56.8267C181.211 56.8267 182.116 57.0728 182.891 57.565C183.672 58.0572 184.278 58.7482 184.711 59.6382C185.149 60.5281 185.367 61.5696 185.367 62.7628C185.367 63.946 185.149 64.9801 184.711 65.8651C184.278 66.75 183.672 67.4386 182.891 67.9308C182.116 68.423 181.211 68.6691 180.177 68.6691ZM180.177 67.0881C180.962 67.0881 181.609 66.8867 182.116 66.484C182.623 66.0813 182.998 65.5519 183.242 64.8956C183.486 64.2394 183.607 63.5284 183.607 62.7628C183.607 61.9972 183.486 61.2838 183.242 60.6225C182.998 59.9613 182.623 59.4269 182.116 59.0192C181.609 58.6115 180.962 58.4077 180.177 58.4077C179.391 58.4077 178.745 58.6115 178.238 59.0192C177.731 59.4269 177.356 59.9613 177.112 60.6225C176.868 61.2838 176.747 61.9972 176.747 62.7628C176.747 63.5284 176.868 64.2394 177.112 64.8956C177.356 65.5519 177.731 66.0813 178.238 66.484C178.745 66.8867 179.391 67.0881 180.177 67.0881ZM189.814 61.5398V68.4304H188.054V56.9759H189.754V58.7656H189.903C190.172 58.184 190.579 57.7166 191.126 57.3637C191.673 57.0057 192.379 56.8267 193.244 56.8267C194.02 56.8267 194.698 56.9858 195.28 57.304C195.862 57.6172 196.314 58.0945 196.637 58.7358C196.96 59.3722 197.122 60.1776 197.122 61.152V68.4304H195.362V61.2713C195.362 60.3715 195.128 59.6705 194.661 59.1683C194.194 58.6612 193.552 58.4077 192.737 58.4077C192.175 58.4077 191.673 58.5295 191.231 58.7731C190.793 59.0167 190.448 59.3722 190.194 59.8395C189.941 60.3068 189.814 60.8736 189.814 61.5398Z" fill="black"/>
</svg>
